<?xml version="1.0" encoding="UTF-8"?>
<svg version="1.1" xmlns="http://www.w3.org/2000/svg" width="2000" height="2000">
<path d="M0 0 C660 0 1320 0 2000 0 C2000 660 2000 1320 2000 2000 C1340 2000 680 2000 0 2000 C0 1340 0 680 0 0 Z " fill="#FEFEFE" transform="translate(0,0)"/>
<path d="M0 0 C0.8058252 0.02562012 1.61165039 0.05124023 2.44189453 0.07763672 C36.83877792 1.32384159 68.80718579 22.4995144 91.625 46.75 C112.12113113 69.22241283 124.93995572 100.62565437 126 131 C126.03641602 131.62535645 126.07283203 132.25071289 126.11035156 132.89501953 C128.03999641 167.91239815 114.23061989 203.90041848 91 230 C79.77390794 242.19311909 67.5978756 252.05665147 53 260 C57.20359055 261.13335538 61.42684405 261.47984343 65.75 261.875 C139.15112578 269.03460138 139.15112578 269.03460138 162 293 C167.10563421 299.7413065 168.8498895 305.54898612 168 314 C165.01815275 325.48437171 157.98748555 331.87077459 148.09375 337.796875 C140.81205803 341.88571571 132.93868846 344.49949866 125 347 C124.27280762 347.23170898 123.54561523 347.46341797 122.79638672 347.70214844 C100.98318475 354.46816553 78.00411255 357.05281185 55.3046875 358.6328125 C53.93062555 358.72973011 53.93062555 358.72973011 52.52880478 358.82860565 C31.35662193 360.28721918 10.22737943 360.38968232 -10.98553467 360.26428223 C-14.88725385 360.24499657 -18.78892664 360.24110936 -22.69068718 360.2375679 C-27.45787436 360.23236675 -32.22502228 360.21795342 -36.9921875 360.203125 C-37.85657314 360.20124428 -38.72095879 360.19936356 -39.61153793 360.19742584 C-56.08593806 360.15091124 -72.6275568 359.83907256 -89.0078125 357.94921875 C-89.90966278 357.84914017 -90.81151306 357.74906158 -91.74069214 357.64595032 C-93.60729688 357.43671358 -95.47352924 357.22412554 -97.33935547 357.00805664 C-100.12999849 356.6869248 -102.9221691 356.38297178 -105.71484375 356.08007812 C-121.86841677 354.27466054 -137.75828658 351.55395798 -153.1875 346.3125 C-154.19361328 345.9714624 -155.19972656 345.6304248 -156.23632812 345.27905273 C-170.45641859 340.27362632 -183.07279238 334.13361302 -190.9375 320.6875 C-193.58234125 313.99760743 -194.43559942 306.95716888 -191.94140625 300.08203125 C-184.06464398 284.60600781 -168.69388502 278.20306656 -153 273 C-152.28054199 272.7525 -151.56108398 272.505 -150.81982422 272.25 C-127.91928119 264.54795619 -102.9223632 262.60354031 -79 260 C-79.54409515 259.65004471 -80.08819031 259.30008942 -80.64877319 258.93952942 C-89.19835854 253.43099537 -97.55188341 248.0445554 -104.91796875 240.9921875 C-106.85106827 239.14250503 -108.85568192 237.48963601 -110.9375 235.8125 C-134.23443809 215.43356224 -148.67914506 180.44510397 -151 150 C-151.74712954 135.38872556 -151.62487241 121.21703206 -148 107 C-147.73316406 105.79085938 -147.46632813 104.58171875 -147.19140625 103.3359375 C-142.18628328 82.20319609 -131.26298812 63.2336946 -117 47 C-116.24332031 46.09894531 -115.48664063 45.19789063 -114.70703125 44.26953125 C-85.76449433 10.79439474 -43.00000598 -2.06341643 0 0 Z " fill="#22406B" transform="translate(996,962)"/>
<path d="M0 0 C1.97327707 -0.00241067 3.94655414 -0.00482467 5.91983092 -0.00746042 C12.11208455 -0.01549364 18.30432377 -0.01805571 24.49658203 -0.01733398 C30.0200495 -0.0168061 35.54344529 -0.02376338 41.06689453 -0.0378418 C116.43801252 -0.22548602 191.40691611 3.47393075 266.4765625 10.16796875 C268.43554322 10.34118721 270.39452737 10.51436684 272.35351562 10.6875 C301.1366349 13.24443143 329.84742088 16.44360502 358.54449463 19.82348633 C361.19129695 20.13445351 363.83847086 20.44194924 366.48583984 20.74804688 C408.93957444 25.68121073 451.16875653 32.84020075 493.3515625 39.66796875 C494.04163391 39.77962372 494.73170532 39.89127869 495.44268799 40.00631714 C498.55394665 40.51126911 501.66340705 41.02464236 504.77099609 41.55175781 C507.5066164 42.00667319 510.24013307 42.43258894 512.98291016 42.83886719 C514.51209394 43.07845927 516.04122903 43.3183623 517.5703125 43.55859375 C518.62869827 43.7053656 518.62869827 43.7053656 519.70846558 43.85510254 C526.91391074 45.02352386 530.79431451 48.8838439 535.4765625 54.16796875 C536.69999361 55.36137701 537.92870387 56.5494116 539.1640625 57.73046875 C542.03252689 60.65205285 544.75805084 63.67579886 547.42578125 66.78125 C548.95576302 68.56185736 550.50285586 70.32778893 552.05859375 72.0859375 C560.78621487 82.00932791 568.66915079 92.51275328 576.4765625 103.16796875 C576.95899414 103.8232959 577.44142578 104.47862305 577.93847656 105.15380859 C595.93444741 129.65825602 610.86901875 156.01993292 624.4765625 183.16796875 C625.00668945 184.22419434 625.53681641 185.28041992 626.08300781 186.36865234 C636.98912084 208.23899874 646.0250737 230.70829853 654.1640625 253.73046875 C654.4326709 254.48955536 654.7012793 255.24864197 654.97802734 256.0307312 C655.73610141 258.1803517 656.48859981 260.33181485 657.23828125 262.484375 C657.67100342 263.72646729 658.10372559 264.96855957 658.54956055 266.24829102 C659.4765625 269.16796875 659.4765625 269.16796875 659.4765625 271.16796875 C648.09368525 270.6208507 636.73982961 269.92908966 625.3833313 268.98217773 C593.1571941 266.30991984 560.8889701 264.30587136 528.6015625 262.54296875 C527.46059113 262.48052979 526.31961975 262.41809082 525.14407349 262.35375977 C513.48637306 261.71899448 501.82894352 261.12709006 490.1640625 260.640625 C483.27549876 260.35285994 476.40500172 259.99251412 469.52954102 259.47045898 C449.38539582 257.94924098 429.18928957 257.46569722 409.00146484 256.86547852 C407.70594193 256.82625275 406.41041901 256.78702698 405.07563782 256.74661255 C402.64975715 256.67363092 400.22380615 256.6029306 397.79777527 256.53512573 C391.10940539 256.33474652 384.44415095 255.99111543 377.76719666 255.5533905 C361.04925086 254.48093065 344.28141357 254.10935567 327.5390625 253.60546875 C326.40999733 253.57137405 325.28093216 253.53727936 324.11765289 253.50215149 C271.26378128 251.93059535 218.40706324 251.88910389 165.53387976 251.91650248 C162.37570152 251.91795763 159.21752375 251.91877474 156.05934525 251.919384 C100.71480836 251.93125129 45.38863222 252.25533406 -9.94555664 253.37182617 C-10.97869759 253.39263024 -10.97869759 253.39263024 -12.03271008 253.4138546 C-51.4609687 254.24262387 -90.92912186 256.53486757 -130.29974365 258.76811218 C-135.79739456 259.0775691 -141.29603508 259.36431948 -146.79521179 259.64527893 C-231.8428319 263.9906307 -317.17483956 271.25775998 -401.5234375 283.16796875 C-402.97410273 283.37138752 -404.42478715 283.57466943 -405.87548828 283.77783203 C-421.68743292 285.99486866 -437.49509798 288.23254645 -453.25390625 290.80419922 C-455.66470548 291.19061175 -458.07797173 291.55743899 -460.4921875 291.921875 C-503.89772749 298.55504862 -547.08653239 307.1090458 -589.79394531 317.28857422 C-593.6446978 318.19656129 -597.50090043 319.07872925 -601.359375 319.953125 C-613.13249681 322.62929655 -624.81991548 325.36477145 -636.34472656 328.9777832 C-642.31561319 330.84445408 -648.32909311 332.40600074 -654.3984375 333.91796875 C-666.31275229 336.92091367 -677.88162732 340.83337905 -689.5 344.80078125 C-693.91003027 346.30598495 -698.3289164 347.73051279 -702.79296875 349.06640625 C-711.17116022 351.61645634 -719.372831 354.63567859 -727.5859375 357.66796875 C-728.41736267 357.97443329 -729.24878784 358.28089783 -730.10540771 358.59664917 C-745.47885358 364.27908238 -760.57341403 370.4408943 -775.5234375 377.16796875 C-776.67457031 377.68182129 -777.82570313 378.19567383 -779.01171875 378.72509766 C-812.97014793 393.9399341 -848.40986807 411.34658927 -876.5234375 436.16796875 C-877.1834375 435.83796875 -877.8434375 435.50796875 -878.5234375 435.16796875 C-873.16368428 429.57000428 -867.61721553 424.4234072 -861.55859375 419.58984375 C-859.45823133 417.91387888 -857.38809208 416.2240006 -855.33203125 414.49609375 C-832.32408585 395.35132454 -805.85444514 379.70920384 -779.45605469 365.72460938 C-777.47919411 364.67528678 -775.50594255 363.61914016 -773.53613281 362.55664062 C-735.40684836 341.99280495 -695.28816126 325.98603983 -654.4609375 311.66796875 C-653.23809052 311.23902817 -653.23809052 311.23902817 -651.99053955 310.80142212 C-600.19212603 292.69148999 -546.82030536 279.44797289 -493.06214905 268.68200684 C-488.1757984 267.70339776 -483.29275826 266.71158638 -478.4140625 265.6953125 C-452.72423668 260.3699783 -426.83432636 256.29818565 -400.80078125 253.08984375 C-395.26970566 252.40433458 -389.76323445 251.6171383 -384.25439453 250.77368164 C-348.76055998 245.38861767 -312.81219892 241.98532067 -276.99951172 239.54638672 C-273.02869381 239.27532204 -269.05940304 238.98742867 -265.09033203 238.69189453 C-182.58587258 232.58287557 -99.88215479 232.7743482 88.6640625 234.10546875 C89.72250996 234.12721664 90.78095741 234.14896454 91.87147903 234.17137146 C98.77525399 234.31471588 105.67870722 234.46924613 112.58203125 234.6328125 C113.42687199 234.65231649 114.27171272 234.67182049 115.14215469 234.69191551 C124.73905764 234.91776886 134.3158243 235.28729416 143.90080929 235.8180685 C149.72251286 236.1383787 155.53717133 236.35200133 161.3671875 236.44921875 C162.74327179 236.47683289 162.74327179 236.47683289 164.14715576 236.50500488 C167.00691068 236.56224738 169.86671422 236.61561567 172.7265625 236.66796875 C183.9482381 236.87495363 195.15830839 237.12498016 206.37011719 237.65087891 C217.44532652 238.14784613 228.51777899 238.49216503 239.6015625 238.72265625 C240.59167328 238.74359219 241.58178406 238.76452812 242.60189819 238.78609848 C271.29682858 239.3734083 299.9969863 239.31950773 328.6964922 239.29653811 C334.75382939 239.29219693 340.81114575 239.29530275 346.86848164 239.30016625 C352.85546522 239.30477083 358.84244007 239.30531396 364.82942486 239.30272758 C368.3441841 239.30120944 371.85892953 239.30084235 375.37368774 239.30426407 C390.19614862 239.31415463 405.00098342 239.16547812 419.81567383 238.69799805 C420.48733928 238.67693473 421.15900473 238.65587142 421.85102367 238.63416982 C431.9840639 238.3096199 442.06960675 237.79122802 452.1640625 236.85546875 C452.87339935 236.79172058 453.58273621 236.72797241 454.31356812 236.66229248 C481.1524336 234.24184653 507.46733518 230.58344499 533.1640625 222.23046875 C534.13190674 221.91883789 535.09975098 221.60720703 536.09692383 221.28613281 C550.84271434 216.29239138 563.98357781 208.26316372 571.4765625 194.16796875 C575.62663597 184.35870419 574.15056592 171.74030396 570.66210938 161.86157227 C569.7087389 159.57122513 568.6831467 157.33809449 567.6015625 155.10546875 C567.21009033 154.29255371 566.81861816 153.47963867 566.4152832 152.64208984 C559.36149517 138.49609594 549.64724455 126.27556188 538.4765625 115.16796875 C537.69152344 114.38292969 536.90648437 113.59789062 536.09765625 112.7890625 C488.3603209 67.63648981 415.92775497 52.31587714 353.52563477 40.55603027 C350.76259424 40.03275458 348.00274423 39.4932343 345.2421875 38.95703125 C328.79930165 35.85370087 312.14729989 34.01598774 295.54151917 32.02104187 C290.88334909 31.46139182 286.22768524 30.88689143 281.57421875 30.2890625 C266.14209416 28.32513262 250.67053271 26.99409583 235.16889954 25.73049927 C230.33229694 25.3325569 225.5019366 24.89003382 220.671875 24.41796875 C172.05381618 19.75633703 122.97409726 18.64793613 74.17154598 17.34799957 C69.64708604 17.22732622 65.12278805 17.10190989 60.59855556 16.97299862 C-24.4184702 14.55571295 -109.47861043 14.52926058 -194.5234375 14.16796875 C-194.5234375 13.83796875 -194.5234375 13.50796875 -194.5234375 13.16796875 C-192.76580078 12.98621094 -192.76580078 12.98621094 -190.97265625 12.80078125 C-189.38539393 12.63172373 -187.79815563 12.46244065 -186.2109375 12.29296875 C-185.44458984 12.21433594 -184.67824219 12.13570312 -183.88867188 12.0546875 C-179.72118846 11.60508348 -175.63343578 11.02116904 -171.51953125 10.21484375 C-163.70312024 8.75592512 -155.80738126 8.0429028 -147.8984375 7.29296875 C-146.59018005 7.16757217 -146.59018005 7.16757217 -145.25549316 7.03964233 C-127.6556491 5.37377076 -110.02560665 4.19930474 -92.38251495 3.11074066 C-90.31262985 2.98288955 -88.24282966 2.85372692 -86.17303467 2.72442627 C-82.180858 2.4760703 -78.18816543 2.237242 -74.1953125 2 C-73.06153168 1.93036545 -71.92775085 1.8607309 -70.75961304 1.78898621 C-47.19077372 0.42844223 -23.60364802 0.00701537 0 0 Z " fill="#203E69" transform="translate(985.5234375,612.83203125)"/>
<path d="M0 0 C6.53774293 0.50895765 13.06898466 0.8875394 19.62101746 1.15332031 C27.67422193 1.496144 35.66678688 2.14237232 43.68913269 2.9206543 C50.61010144 3.58011853 57.52317806 4.0206854 64.46916199 4.31152344 C67.95860384 4.46504321 71.39199574 4.69622549 74.85539246 5.15722656 C78.80324364 5.65265848 82.71297864 5.87227541 86.68351746 6.02832031 C94.52718466 6.39348594 102.33604836 7.01320391 110.15531158 7.72471619 C113.88124714 8.06326252 117.60784367 8.39440137 121.33439636 8.72607422 C122.15382217 8.7990913 122.97324799 8.87210838 123.81750488 8.9473381 C141.73161621 10.53906572 159.6539457 12.03875193 177.57414246 13.56005859 C182.22329751 13.95478897 186.87238408 14.35031111 191.52140808 14.74658203 C243.56038156 19.36915945 243.56038156 19.36915945 295.68351746 22.84082031 C297.19656136 22.9230794 298.70958209 23.0057657 300.22257996 23.08886719 C303.75098016 23.28181156 307.2796312 23.4694485 310.80851746 23.65332031 C310.80851746 24.31332031 310.80851746 24.97332031 310.80851746 25.65332031 C309.97868347 25.72325195 309.14884949 25.79318359 308.29386902 25.86523438 C260.93828931 29.82304365 260.93828931 29.82304365 213.65910339 34.58349609 C205.65214613 35.4648545 197.63994041 36.26388684 189.62101746 37.02832031 C186.30589994 37.34813315 182.99084309 37.66855385 179.67585754 37.98973083 C175.61489531 38.38293313 171.55367309 38.77319342 167.49211121 39.16015625 C64.21761455 42.00273693 64.21761455 42.00273693 -26.19148254 77.65332031 C-27.5996266 81.09140454 -27.5996266 81.09140454 -27.19148254 84.65332031 C-11.30333809 106.17919345 32.57959942 110.07368264 57.1763916 115.23629761 C61.99559128 116.25145784 66.78750238 117.34644534 71.57804871 118.48925781 C89.65320975 122.67420605 106.83248316 123.40741353 125.241745 122.74371338 C127.98351555 122.64715747 130.72549132 122.56225006 133.46769714 122.47900391 C160.97379189 121.62799907 188.40155135 120.14072465 215.80851746 117.65332031 C216.61871338 117.58048828 217.4289093 117.50765625 218.26365662 117.43261719 C250.10388379 114.55899276 281.47856996 110.11885644 312.80851746 103.65332031 C313.56487488 103.50072754 314.3212323 103.34813477 315.10050964 103.19091797 C349.3459668 96.1887292 383.56249286 83.0554945 414.80851746 67.65332031 C415.73986511 67.1945752 416.67121277 66.73583008 417.63078308 66.26318359 C434.50167085 57.86704465 450.58938304 48.26974 465.80851746 37.15332031 C476.01114997 29.78402731 485.92004559 25.00285413 498.80851746 26.65332031 C508.0332206 28.46617502 513.69734327 34.82535208 518.78092957 42.30493164 C519.72050303 43.71061204 520.6574933 45.11802231 521.59196472 46.52709961 C525.80197467 52.8206386 530.57913755 58.17148758 535.80851746 63.65332031 C536.98369339 64.97915983 538.1510684 66.31197749 539.30851746 67.65332031 C542.01526021 70.77843548 544.80902718 73.81016827 547.62101746 76.84082031 C573.97698988 105.8642401 599.31875645 150.25442726 597.80851746 190.65332031 C595.16851746 190.65332031 592.52851746 190.65332031 589.80851746 190.65332031 C587.8988169 185.17167983 586.23426993 179.67216173 584.76799011 174.05615234 C577.66206476 146.85997143 568.02951994 119.98093616 547.80851746 99.65332031 C547.14722839 98.95722656 546.48593933 98.26113281 545.80461121 97.54394531 C531.32174444 83.36337747 510.08461344 78.39419377 490.42692566 78.40454102 C456.623224 78.87342781 424.22834799 90.56889899 392.68351746 101.59082031 C391.46841995 102.01486649 391.46841995 102.01486649 390.22877502 102.44747925 C380.52122349 105.84344282 370.8675595 109.36461961 361.24601746 112.99707031 C349.33643613 117.49004636 337.36192485 121.78548799 325.35490417 126.01049805 C321.94033675 127.21341794 318.52871269 128.42444024 315.11711121 129.63574219 C296.27779612 136.29214436 277.26789237 142.38491798 258.01554871 147.73925781 C255.77410195 148.37811109 253.54276249 149.05303241 251.32023621 149.75488281 C236.41983917 154.44385933 221.10842857 157.57894593 205.80851746 160.65332031 C205.11697571 160.79229736 204.42543396 160.93127441 203.7129364 161.07446289 C131.99576051 175.36802697 56.70999352 175.29656339 -13.75398254 154.40332031 C-15.26315247 153.9572644 -15.26315247 153.9572644 -16.80281067 153.50219727 C-55.82344049 141.84633014 -92.67335527 125.56950581 -128.19148254 105.65332031 C-129.02711731 105.18845215 -129.86275208 104.72358398 -130.72370911 104.24462891 C-143.689769 96.98636506 -143.689769 96.98636506 -146.19148254 91.65332031 C-146.94222391 87.14887213 -146.49682734 85.17813168 -144.19148254 81.21582031 C-130.6290722 67.0151789 -105.51214892 63.46989484 -87.19148254 59.65332031 C-86.05678528 59.41468262 -84.92208801 59.17604492 -83.75300598 58.93017578 C-63.39911727 54.69323258 -42.97719601 51.61079774 -22.3664093 48.93652344 C-19.56111756 48.57123877 -16.75674878 48.19914546 -13.9523468 47.82710266 C-5.70313304 46.73384614 2.55097074 45.68173698 10.80851746 44.65332031 C11.81173035 44.52747559 12.81494324 44.40163086 13.84855652 44.27197266 C28.30558287 42.47651118 42.79434267 41.05653883 57.29371643 39.65615845 C77.12579942 37.7406322 96.94182805 35.7145307 116.74601746 33.52832031 C117.86415833 33.40621185 118.98229919 33.28410339 120.13432312 33.15829468 C133.37822314 31.70861925 146.54749083 30.01611723 159.71235657 27.97235107 C164.56632563 27.23358839 169.43481434 26.61988704 174.30851746 26.02832031 C175.24308777 25.90714844 176.17765808 25.78597656 177.14054871 25.66113281 C186.99693324 24.46008993 196.89475196 24.08258882 206.80851746 23.65332031 C205.53999939 23.57815186 204.27148132 23.5029834 202.96452332 23.42553711 C198.02269761 23.13240867 193.08095871 22.83783547 188.13923645 22.54296875 C185.86238371 22.40732698 183.58550754 22.27207805 181.30860901 22.13720703 C169.4692296 21.43566946 157.63140509 20.72822337 145.80070496 19.89160156 C117.27478347 17.89701475 88.73676784 16.75197697 60.16160011 15.74667168 C56.7801869 15.62762125 53.39883272 15.50692873 50.01747131 15.38641739 C47.68259636 15.3043346 45.34762385 15.22571731 43.01261902 15.14743042 C36.91108451 14.93601438 30.82858447 14.69589799 24.74577332 14.14624023 C17.51208519 13.49624947 10.26865865 13.3093589 3.01164246 13.11816406 C1.84321839 13.08634851 1.84321839 13.08634851 0.6511898 13.05389023 C-5.54606269 12.8862069 -11.74366248 12.73583688 -17.94148254 12.59082031 C-18.87888653 12.56860287 -19.81629051 12.54638542 -20.78210068 12.52349472 C-61.48755628 11.56816959 -102.19006363 11.45912757 -142.90432167 11.46567011 C-145.23272361 11.46581895 -147.56112454 11.46535063 -149.88952637 11.46464157 C-182.28385363 11.45489514 -214.67232312 11.55061483 -247.06257629 12.10253906 C-248.82922481 12.13148726 -248.82922481 12.13148726 -250.63156319 12.16102028 C-262.04166739 12.35354418 -273.4117156 12.63766083 -284.79660034 13.43214417 C-289.80180341 13.75823251 -294.80240236 13.85722795 -299.81648254 13.94238281 C-334.98727429 14.70566797 -370.06229601 16.55369682 -405.17170715 18.73967743 C-408.7463558 18.96146924 -412.32118373 19.18012476 -415.89607239 19.39801025 C-447.038272 21.30363944 -478.09017027 23.77728124 -509.14466095 26.79137993 C-516.23400665 27.47627273 -523.32664385 28.11117447 -530.42292786 28.71972656 C-538.44455961 29.40783179 -546.45780722 30.14254862 -554.46492004 30.98535156 C-556.14707108 31.16043243 -556.14707108 31.16043243 -557.86320496 31.33905029 C-561.43127206 31.71177594 -564.99892573 32.08824337 -568.56648254 32.46582031 C-569.80482849 32.59648895 -571.04317444 32.72715759 -572.31904602 32.86178589 C-593.88073846 35.14209025 -615.41462464 37.59277196 -636.91920471 40.36090088 C-639.1284335 40.64520653 -641.33792071 40.92743168 -643.54743958 41.20947266 C-724.75822054 51.61925455 -806.26853018 64.62317641 -885.80867004 84.28613281 C-886.80632385 84.53049072 -887.80397766 84.77484863 -888.8318634 85.02661133 C-890.61120654 85.46504073 -892.38837742 85.91245653 -894.16242981 86.37182617 C-897.90733184 87.30453543 -900.50146397 87.79181173 -904.19148254 86.65332031 C-865.87769431 75.43441539 -865.87769431 75.43441539 -851.29846191 71.75221252 C-846.15840014 70.44515165 -841.05395718 69.05704113 -835.96510315 67.56347656 C-823.88171831 64.01977884 -811.69785469 61.03052866 -799.44148254 58.15332031 C-797.40360968 57.67121076 -795.36585027 57.18862136 -793.32820129 56.70556641 C-789.3709898 55.76785039 -785.41328714 54.83225686 -781.45515442 53.8984375 C-776.02611421 52.6162104 -770.60248159 51.31272748 -765.18049622 50.00097656 C-761.39058555 49.0846868 -757.59841904 48.17809642 -753.80525208 47.27539062 C-752.05845492 46.85965747 -750.31203608 46.44233167 -748.56599426 46.0234375 C-736.27182728 43.08635804 -723.91713319 40.61331307 -711.48609924 38.33444214 C-702.19903535 36.63144694 -692.97152209 34.76847712 -683.75398254 32.71582031 C-657.46342403 26.927759 -630.76752581 22.83842683 -604.10554504 19.1953125 C-598.6767202 18.44356654 -593.25258629 17.66028865 -587.82809448 16.87799072 C-580.58099527 15.83325128 -573.33217258 14.80102647 -566.0824585 13.77459717 C-561.89795095 13.18169227 -557.71398861 12.58572883 -553.53181458 11.9765625 C-531.5082842 8.77046733 -509.45618637 6.39048843 -487.29353333 4.35229492 C-486.23277588 4.2547139 -485.17201843 4.15713287 -484.07911682 4.05659485 C-481.98512131 3.86401803 -479.89108669 3.67186582 -477.79701233 3.48014832 C-472.1307414 2.95385435 -466.48535872 2.34710549 -460.83992004 1.63378906 C-448.96121147 0.1576538 -437.00396428 -0.52218344 -425.06648254 -1.34667969 C-422.70838543 -1.51300366 -420.35031236 -1.67966892 -417.99226379 -1.84667969 C-411.96646014 -2.27162078 -405.93990893 -2.68465167 -399.91294861 -3.09283447 C-396.15053917 -3.34947248 -392.38868772 -3.61348747 -388.62678528 -3.87744141 C-369.92917691 -5.16576054 -351.23725486 -5.980439 -332.50398254 -6.47167969 C-331.73190964 -6.49236008 -330.95983673 -6.51304047 -330.16436768 -6.53434753 C-234.52256396 -9.079599 -138.6838654 -8.12645556 0 0 Z " fill="#203E69" transform="translate(1295.1914825439453,896.3466796875)"/>
<path d="M0 0 C5.34492213 0.00754731 10.68977012 0.00481222 16.03468955 -0.00360346 C53.31757171 -0.06083692 90.49014763 0.38629317 127.74108183 2.13817739 C133.0537914 2.38435417 138.3676411 2.60514224 143.68123496 2.83126593 C161.75346415 3.67836033 179.77482615 5.34188006 197.79313529 6.93732977 C199.94406374 7.1275569 202.09511137 7.31638741 204.24617636 7.50506353 C223.85026915 9.23111724 243.37093352 11.40123997 262.89855063 13.8386817 C267.11603155 14.35625572 271.33681993 14.82963105 275.56227744 15.27666998 C294.86429465 17.3520188 313.89133472 20.43748431 332.98490012 23.92728949 C338.38719257 24.91414819 343.79398124 25.86894391 349.20680869 26.79620123 C376.46040297 31.47439252 403.46081906 37.01379232 430.37087119 43.38213873 C431.24566123 43.58810675 432.12045126 43.79407476 433.02175009 44.00628424 C443.29407701 46.4328525 453.44861171 49.09426018 463.55568564 52.13702154 C468.30175637 53.55364847 473.0747896 54.83520423 477.87087119 56.06963873 C478.70038291 56.2855567 479.52989462 56.50147467 480.38454306 56.7239356 C482.35853044 57.23740053 484.33334979 57.74766559 486.30837119 58.25713873 C482.70072195 59.50648029 480.10365827 59.01263996 476.40993369 58.21807623 C475.22238486 57.96960943 474.03483603 57.72114264 472.81130087 57.46514654 C471.53158408 57.19025396 470.25186728 56.91536139 468.93337119 56.63213873 C466.22390623 56.06499493 463.51263448 55.50696605 460.80055869 54.95245123 C460.10434409 54.80988897 459.40812949 54.66732672 458.69081748 54.52044439 C449.94433721 52.74985099 441.14347012 51.32654172 432.33425009 49.90704107 C427.28625769 49.09204051 422.25541458 48.27272745 417.24977744 47.22588873 C411.37129223 46.02047235 405.44523352 45.27189917 399.49587119 44.50713873 C397.53188313 44.25036598 395.56789766 43.99357312 393.60397971 43.73626471 C392.17799844 43.54957023 390.75196122 43.36330273 389.32587302 43.17742682 C383.38045209 42.40161603 377.43793296 41.60510638 371.49587119 40.80401373 C368.61003134 40.41584627 365.72417106 40.02783096 362.83830893 39.63982916 C360.99868754 39.39215249 359.1591436 39.14389955 357.31969321 38.89495611 C350.65209102 37.99336624 343.98153772 37.11656737 337.30837119 36.25713873 C336.12537436 36.1043244 334.94237753 35.95151007 333.72353232 35.794065 C311.75313172 32.97986698 289.75145767 30.80262177 267.68880332 28.85412359 C263.48872183 28.48199038 259.28920519 28.1035871 255.08962119 27.72588873 C247.9313478 27.08296855 240.77255642 26.44612878 233.61329234 25.81433916 C229.14506719 25.4199924 224.67718075 25.02205621 220.20949423 24.62164068 C218.18126589 24.44142704 216.15302788 24.26132215 214.12477744 24.08135748 C213.26460013 24.00360083 212.40442282 23.92584417 211.51817954 23.84573126 C203.25432271 23.1187878 194.97655101 22.73604849 186.68752158 22.43072271 C184.66333912 22.28303736 182.64650679 22.03967195 180.63410056 21.77633429 C176.66594433 21.27571831 172.71264519 20.99075446 168.71755087 20.77642584 C167.99206581 20.73728819 167.26658074 20.69815054 166.51911128 20.6578269 C164.08969628 20.52893268 161.66004964 20.4058274 159.23024619 20.28448248 C158.36490948 20.24110313 157.49957278 20.19772379 156.60801375 20.15302992 C71.93459505 15.95557333 -13.99920417 13.88600509 -129.55991495 21.01043463 C-134.31734751 21.38520645 -139.07843488 21.69902361 -143.84006631 22.01495123 C-152.80476292 22.62488305 -161.74931935 23.37919381 -170.69162881 24.25713873 C-171.4913511 24.33536871 -172.29107339 24.41359869 -173.11502969 24.49419928 C-196.29305645 26.78291664 -219.346469 29.8074653 -242.37912881 33.25713873 C-243.46549631 33.41854345 -244.5518638 33.57994818 -245.67115152 33.74624395 C-261.45017047 36.10457946 -277.07552798 38.99419603 -292.69162881 42.25713873 C-293.43172189 42.4106983 -294.17181497 42.56425787 -294.93433511 42.72247076 C-298.91976162 43.54995157 -302.90062664 44.39703032 -306.87912881 45.25713873 C-308.03783487 45.50713629 -309.19654092 45.75713385 -310.39035928 46.01470709 C-313.82495895 46.75837504 -317.25851007 47.50666657 -320.69162881 48.25713873 C-321.70982706 48.47901861 -322.7280253 48.70089849 -323.77707803 48.92950201 C-391.5602432 63.76867128 -462.22994696 88.40277981 -517.69162881 131.25713873 C-518.3751542 131.78517096 -519.05867959 132.31320318 -519.76291788 132.85723639 C-564.71696579 167.898395 -598.34610173 215.8671047 -606.69162881 273.25713873 C-607.31803577 278.81273006 -607.8264731 284.37564871 -608.31662881 289.94463873 C-608.45159265 291.43621623 -608.58700628 292.9277531 -608.72287881 294.4192481 C-609.05097211 298.03142563 -609.37301071 301.64411161 -609.69162881 305.25713873 C-617.48381733 307.15643169 -625.30396185 308.23604365 -633.25412881 309.25713873 C-634.60433495 309.43238576 -635.95451386 309.60784274 -637.30466592 309.78350592 C-639.93340756 310.12500786 -642.5624215 310.46413325 -645.19162881 310.8020606 C-648.04819581 311.17347808 -650.9016115 311.55927855 -653.75412881 311.96026373 C-661.77175016 313.06917322 -669.59489928 313.50669546 -677.69162881 313.25713873 C-675.82578193 307.30305441 -673.64640233 301.64939408 -670.98850381 296.00713873 C-670.63414255 295.24427557 -670.27978128 294.48141241 -669.91468179 293.69543219 C-669.15562701 292.06256477 -668.39443394 290.43068989 -667.63126504 288.79974127 C-666.00299899 285.31965778 -664.38548291 281.8346146 -662.76752603 278.34972906 C-661.93934425 276.56593097 -661.11066804 274.78236235 -660.28150308 272.99902105 C-656.49736703 264.85571556 -652.7724838 256.68630095 -649.06662881 248.50713873 C-647.8455637 245.81429925 -646.62412063 243.12163132 -645.40256631 240.42901373 C-645.10028116 239.76256842 -644.797996 239.0961231 -644.48655069 238.40948248 C-640.90520814 230.51761629 -637.29789 222.63764026 -633.69162881 214.75713873 C-628.50918816 203.43093517 -623.34147852 192.09819796 -618.19162881 180.75713873 C-612.37970072 167.95804275 -606.54346488 155.17022866 -600.69187295 142.38921881 C-597.31073123 135.00173961 -593.94137949 127.60919006 -590.59397256 120.20635748 C-589.92146591 118.72067162 -589.24894011 117.23499442 -588.57639444 115.74932623 C-587.32339477 112.98113601 -586.0738563 110.21142177 -584.82639444 107.44073248 C-581.97834431 101.13303091 -579.07034004 94.85635017 -576.02756631 88.63995123 C-575.49051065 87.53925299 -574.95345499 86.43855474 -574.40012491 85.30450201 C-571.55982177 80.23838829 -567.83767958 76.28024236 -563.69162881 72.25713873 C-562.91948038 71.48756842 -562.14733194 70.7179981 -561.35178506 69.92510748 C-545.04898813 54.41499111 -524.69561316 47.28208006 -502.81662881 44.25713873 C-501.63987588 44.08835211 -500.46312295 43.91956549 -499.25071084 43.74566412 C-495.73199061 43.2422751 -492.21209967 42.74811977 -488.69162881 42.25713873 C-484.98304691 41.73805728 -481.27464379 41.21775541 -477.56662881 40.69463873 C-476.70464883 40.57330572 -475.84266885 40.45197271 -474.95456827 40.32696295 C-469.94962975 39.61217788 -464.97760545 38.79521803 -460.00412881 37.88213873 C-440.79219497 34.36277813 -421.3560399 31.74572333 -401.96775186 29.41460943 C-396.31687716 28.72907195 -390.67765304 27.98433388 -385.04319131 27.17510748 C-342.69936116 21.10236369 -300.16501227 16.62319935 -257.58854043 12.53710699 C-254.8081861 12.26840326 -252.02839163 11.9946117 -249.24875772 11.71856451 C-219.20799126 8.73872101 -189.12435154 6.75642582 -158.99373758 4.95606756 C-152.99378572 4.59490847 -146.99721391 4.21498998 -141.00315225 3.76592779 C-94.057191 0.28281499 -47.0474677 -0.07411058 0 0 Z " fill="#203E69" transform="translate(1002.6916288137436,567.7428612709045)"/>
<path d="M0 0 C1.14831299 0.00491455 2.29662598 0.0098291 3.47973633 0.01489258 C12.12212198 0.13388327 19.97388768 0.90657362 28.3125 3.3125 C29.55902344 3.66441406 30.80554688 4.01632812 32.08984375 4.37890625 C59.01214609 12.43477458 80.10328924 31.52440459 93.3125 55.93359375 C105.28692643 79.2744318 108.00212016 107.4221029 100.05859375 132.484375 C95.22333284 146.53732901 88.39418214 159.33466834 78.3125 170.3125 C77.65556152 171.04098145 77.65556152 171.04098145 76.98535156 171.78417969 C64.1615424 185.87498482 49.13939289 194.35451062 31.25 200.5625 C30.5180542 200.8212793 29.7861084 201.08005859 29.03198242 201.34667969 C5.44189881 209.21792264 -23.07036977 204.45611686 -44.9375 194 C-67.10949607 182.41575486 -82.65471087 164.92673033 -92.6875 142.3125 C-93.1825 141.19746094 -93.6775 140.08242187 -94.1875 138.93359375 C-102.45023062 118.89155369 -102.91984643 97.19638707 -97.6875 76.3125 C-97.43226563 75.23226563 -97.17703125 74.15203125 -96.9140625 73.0390625 C-92.74173147 57.53636463 -84.06961444 44.33978027 -73.6875 32.3125 C-73.11773438 31.64089844 -72.54796875 30.96929688 -71.9609375 30.27734375 C-53.90245121 10.69083169 -26.25302848 -0.13299016 0 0 Z " fill="#FDFDFE" transform="translate(981.6875,997.6875)"/>
<path d="M0 0 C3.41983523 2.9146897 6.73243585 5.91606756 10 9 C10.74894531 9.68449219 11.49789063 10.36898437 12.26953125 11.07421875 C35.03149464 32.64028214 47.35080278 64.99780153 48.33886719 95.94360352 C48.84481688 130.86438799 35.41967188 162.88288087 11.46948242 188.0012207 C3.69081212 195.89939432 -4.53264291 202.78562298 -14.51757812 207.74829102 C-29.67387806 215.37180588 -40.5653333 228.03337137 -52.125 240.125 C-55.78052685 243.94669351 -59.44773343 247.75572298 -63.14525986 251.5368309 C-64.60438681 253.04100916 -66.04072218 254.56472114 -67.4770813 256.09060669 C-68.36265717 256.99930511 -69.24823303 257.90800354 -70.16064453 258.84423828 C-70.92877472 259.64902618 -71.69690491 260.45381409 -72.48831177 261.2829895 C-75.91367239 263.62459388 -77.93061785 263.61160575 -82 263 C-84.56311035 261.23156738 -84.56311035 261.23156738 -86.96289062 258.72070312 C-87.87494263 257.78552856 -88.78699463 256.850354 -89.72668457 255.88684082 C-90.20332047 255.38137222 -90.67995636 254.87590363 -91.17103577 254.3551178 C-92.67964839 252.75645495 -94.2096881 251.18133498 -95.74694824 249.61022949 C-99.56589475 245.6980507 -103.34656288 241.74956549 -107.1270752 237.80029297 C-110.31615248 234.4714304 -113.52029294 231.15844352 -116.74467468 227.86375427 C-118.2325354 226.3314207 -119.69713882 224.77925317 -121.16174316 223.22473145 C-127.40326246 216.75036764 -133.68131585 212.52920515 -141.72637939 208.60897827 C-156.58927295 201.30389449 -169.09056386 189.03574008 -179 176 C-179.87205078 174.88625 -179.87205078 174.88625 -180.76171875 173.75 C-200.81434716 146.82619123 -208.49000665 113.37533515 -204.49609375 80.2265625 C-199.69901966 47.46908629 -180.39527408 16.9449354 -154.07617188 -2.77563477 C-108.93525474 -35.71275744 -43.59881711 -36.3841769 0 0 Z M-110 1 C-110.9590625 1.31348389 -110.9590625 1.31348389 -111.9375 1.63330078 C-138.53421503 10.58154034 -159.37471347 30.73566255 -171.9128418 55.5144043 C-183.25818224 78.97786141 -184.41670562 107.36581532 -176.1015625 131.91699219 C-170.56966813 147.30071457 -162.26273082 160.20938888 -151 172 C-150.22269531 172.81984375 -149.44539062 173.6396875 -148.64453125 174.484375 C-129.72150208 192.85371829 -104.4890954 201.23879632 -78.5625 201.125 C-77.68529297 201.12886719 -76.80808594 201.13273437 -75.90429688 201.13671875 C-66.05434668 201.12220151 -57.23047182 200.18137169 -47.875 197 C-46.51411255 196.53968384 -46.51411255 196.53968384 -45.12573242 196.07006836 C-17.85460385 186.44764273 2.47860681 166.58914828 15.10400391 140.89501953 C26.1850021 117.45885932 26.86881406 90.48617454 18.5390625 66.08203125 C9.11509298 40.18784359 -9.26465262 18.21969062 -34.25 6.1875 C-57.44080896 -4.41681804 -85.69001224 -7.15960237 -110 1 Z " fill="#FAFBFC" transform="translate(1062,1001)"/>
<path d="M0 0 C4.3509951 0.49877261 6.3466839 2.68613914 9.140625 5.8046875 C9.63369141 6.32095703 10.12675781 6.83722656 10.63476562 7.36914062 C14.203125 11.15526396 14.203125 11.15526396 14.203125 12.3671875 C13.5004248 12.41206299 12.79772461 12.45693848 12.07373047 12.50317383 C-32.48852856 13.34074951 -32.48852856 13.34074951 -71.140625 31.90234375 C-73.26643516 35.06599048 -73.40888729 36.61861224 -72.796875 40.3671875 C-67.99531873 48.97375063 -59.22673237 52.12184129 -50.16796875 54.81640625 C-32.63056698 59.62575902 -14.82906001 61.45074236 3.265625 62.5546875 C3.96827484 62.59765961 4.67092468 62.64063171 5.39486694 62.68490601 C18.30692457 63.69943194 18.30692457 63.69943194 31.203125 63.3671875 C33.51875587 61.48218479 33.51875587 61.48218479 33.453125 58.3671875 C33.51875587 55.25219021 33.51875587 55.25219021 31.203125 53.3671875 C28.57950442 53.14776881 26.01942145 53.04395227 23.390625 52.9921875 C13.02661896 52.62725771 2.75850712 51.59722478 -7.546875 50.4921875 C-8.32825836 50.41091614 -9.10964172 50.32964478 -9.91470337 50.24591064 C-23.62470548 48.8137126 -37.44790179 47.13949817 -50.609375 42.8671875 C-51.27517578 42.66738281 -51.94097656 42.46757813 -52.62695312 42.26171875 C-56.14119735 41.1504673 -58.32580506 40.07016715 -60.796875 37.3671875 C-44.01756822 28.45848919 -24.63193053 26.82305557 -5.97747803 25.00335693 C-1.450755 24.55889593 3.03878548 23.97648866 7.54296875 23.3359375 C22.97794575 21.49064226 22.97794575 21.49064226 28.79541016 24.87548828 C33.4421668 28.57625464 37.2089182 32.8588465 40.69287109 37.65551758 C43.02907688 40.303293 45.2546494 41.24052772 48.71875 41.703125 C49.62109375 41.71601562 50.5234375 41.72890625 51.453125 41.7421875 C52.34515625 41.77054688 53.2371875 41.79890625 54.15625 41.828125 C61.18840581 40.76428604 65.62854209 37.318903 70.16943359 32.03515625 C77.1016089 24.01938215 77.1016089 24.01938215 82.375 22.3828125 C85.3348463 22.36837423 88.12759873 22.6081791 91.04980469 23.06884766 C93.49031983 23.40697799 95.90708624 23.55701596 98.3671875 23.69140625 C152.29316956 26.85320525 152.29316956 26.85320525 166.203125 38.3671875 C145.25792323 50.40171663 117.56704317 50.35876107 94.13671875 51.921875 C92.84660889 52.00864502 91.55649902 52.09541504 90.22729492 52.18481445 C87.75547833 52.34518912 85.28295975 52.49516281 82.80981445 52.63354492 C81.15598755 52.73566284 81.15598755 52.73566284 79.46875 52.83984375 C78.49711914 52.89406494 77.52548828 52.94828613 76.52441406 53.00415039 C74.01427389 53.16313526 74.01427389 53.16313526 72.203125 55.3671875 C71.95308536 58.90897348 71.95308536 58.90897348 72.203125 62.3671875 C74.24009741 64.40415991 78.36011541 63.6075616 81.140625 63.6171875 C131.76850831 63.85856746 131.76850831 63.85856746 176.203125 44.3671875 C178.23952733 41.68283897 178.20306832 40.36407011 178.140625 36.9296875 C176.79519398 31.81704964 174.48572587 29.70567597 169.96484375 27.0546875 C160.39466224 22.05378394 150.72615811 19.69453744 140.140625 17.8046875 C138.94050781 17.58780273 137.74039062 17.37091797 136.50390625 17.14746094 C121.41596665 14.46307859 106.50610706 12.99926719 91.203125 12.3671875 C92.64377727 10.6492963 94.09591812 8.94497311 95.57202148 7.25732422 C96.92446798 5.69009764 98.21510442 4.06977799 99.48828125 2.4375 C103.51771246 -0.63530366 106.72854549 -0.13958711 111.640625 0.2421875 C112.61636475 0.30245117 113.59210449 0.36271484 114.59741211 0.42480469 C198.45438767 6.44680399 198.45438767 6.44680399 216.765625 26.9921875 C219.99337982 31.07237608 221.86856418 34.80302041 221.69921875 40.15234375 C220.45920925 45.68844916 216.32595748 49.75222716 211.93359375 53.09375 C209.41566091 54.68016972 206.87083255 56.04884365 204.203125 57.3671875 C203.378125 57.78484375 202.553125 58.2025 201.703125 58.6328125 C165.1624723 75.41601926 119.55725389 76.48789862 80.04296875 76.5703125 C79.10452181 76.57313988 78.16607487 76.57596725 77.19919014 76.57888031 C72.2122992 76.59376471 67.22543628 76.60305643 62.23852539 76.60742188 C58.21434241 76.61176296 54.19037911 76.62549911 50.16625977 76.6484375 C-82.14640321 77.38687889 -82.14640321 77.38687889 -110.77734375 49.43359375 C-114.9595251 44.65537705 -116.16930128 41.86258016 -116.0703125 35.67578125 C-115.41564121 30.14848505 -111.22701215 26.30630556 -107.09375 22.94140625 C-85.43286949 8.09559869 -56.58378352 5.25519925 -31.16503906 2.67675781 C-28.83836164 2.42090527 -28.83836164 2.42090527 -26.77954102 1.85083008 C-24.51146875 1.29756679 -22.39034638 1.1557528 -20.05859375 1.05078125 C-19.15560547 1.00888672 -18.25261719 0.96699219 -17.32226562 0.92382812 C-16.38576172 0.88451172 -15.44925781 0.84519531 -14.484375 0.8046875 C-13.55947266 0.76150391 -12.63457031 0.71832031 -11.68164062 0.67382812 C-9.87345181 0.59286445 -8.06471077 0.52329448 -6.25561523 0.46606445 C-4.16631966 0.38204452 -2.08127449 0.20127552 0 0 Z " fill="#FBFCFC" transform="translate(930.796875,1233.6328125)"/>
<path d="M0 0 C0.89396484 -0.01224609 1.78792969 -0.02449219 2.70898438 -0.03710938 C8.20513695 -0.04935025 12.26051713 0.31951142 16.9375 3.4375 C18.0625 5.1875 18.0625 5.1875 18.14453125 7.81640625 C16.27807669 13.63138921 11.12580311 17.00587921 6.52539062 20.82617188 C4.28685073 22.86537607 2.57354501 24.55757679 1.0625 27.1875 C1.01737567 30.26497923 1.50923564 32.72880337 2.3503418 35.68286133 C3.0625 38.1875 3.0625 38.1875 3.0625 42.1875 C8.09698211 43.63419026 12.96462292 44.71358729 18.0625 43.1875 C22.15203212 40.33589019 25.3822748 36.7059739 28.60546875 32.9296875 C33.44098922 27.30814621 33.44098922 27.30814621 37.3828125 26.54296875 C41.07961169 27.43214057 42.10414032 28.99609904 44.0625 32.1875 C47.50171331 42.18414669 45.41220042 54.92186596 41.0625 64.1875 C35.65770627 74.71704634 28.79636668 81.14906376 17.79077148 85.4519043 C14.90948898 86.22875478 12.81486082 86.25584451 9.85546875 85.99609375 C0.26600283 85.21845375 -7.13459344 86.18061413 -14.62373352 92.51234436 C-25.40262357 102.28171292 -34.99819112 113.32103458 -44.02734375 124.703125 C-44.46379715 125.25321228 -44.90025055 125.80329956 -45.34992981 126.37005615 C-48.28854309 130.15669956 -50.76236901 134.06425802 -53.1875 138.1875 C-57.28642622 145.03570601 -61.73065463 150.22121956 -69.51953125 152.70703125 C-78.93903826 154.57875881 -86.93635026 153.78702342 -95.30859375 149.015625 C-102.43408655 144.06060177 -106.87551383 137.64286342 -108.9375 129.1875 C-110.07756884 120.19623547 -108.54825275 113.55836899 -103.53515625 106.1015625 C-99.56365097 101.03279536 -94.97039044 98.29647148 -89.37768555 95.23339844 C-85.85342485 93.20744956 -82.64232949 90.83183918 -79.4609375 88.30859375 C-78.86102493 87.83326202 -78.26111237 87.3579303 -77.64302063 86.86819458 C-71.14518655 81.64761707 -64.96426283 76.12200367 -58.97338867 70.32861328 C-57.73420826 69.14459121 -56.47825071 67.97789857 -55.20678711 66.82861328 C-46.19476368 58.69833183 -46.19476368 58.69833183 -42.74311829 47.43765259 C-42.69002313 45.28957848 -42.71980651 43.16998344 -42.80859375 41.0234375 C-43.13236247 31.38886542 -39.59113702 21.92405592 -33.9375 14.1875 C-24.17116605 4.30309293 -13.58199687 0.00975018 0 0 Z " fill="#22406B" transform="translate(1018.9375,1018.8125)"/>
<path d="M0 0 C1.03191971 -0.00143509 1.03191971 -0.00143509 2.08468628 -0.00289917 C3.53171887 -0.00357462 4.97875461 -0.00176507 6.42578125 0.00244141 C8.5912188 0.00774885 10.7564442 0.00250035 12.921875 -0.00390625 C20.69445955 -0.00751364 28.36758003 0.27238632 36.12011719 0.89648438 C40.63404584 1.21283848 45.14064188 1.28666756 49.66381836 1.37158203 C69.25104654 1.79748331 84.34773845 5.59762072 99.04296875 19.48828125 C106.57131667 27.6169759 112.57853003 36.74196648 116.4921875 47.1328125 C116.9253125 48.2671875 117.3584375 49.4015625 117.8046875 50.5703125 C119.6282781 60.01982743 118.90088603 68.50271309 114.4921875 77.1328125 C112.1796875 80.0078125 112.1796875 80.0078125 109.4921875 82.1328125 C108.5640625 82.9784375 107.6359375 83.8240625 106.6796875 84.6953125 C94.81271406 92.74266788 78.27959894 91.72980141 64.6171875 91.7578125 C47.50201483 91.85760943 30.56434589 92.17396117 13.8671875 96.3828125 C12.99457275 96.59824707 12.12195801 96.81368164 11.22290039 97.03564453 C-5.06812828 101.20031317 -20.23377657 107.25587773 -32.5078125 119.1328125 C-42.41380908 110.73425018 -51.94819771 101.9204309 -61.5078125 93.1328125 C-60.5178125 92.6378125 -60.5178125 92.6378125 -59.5078125 92.1328125 C-58.37601563 92.59945312 -57.24421875 93.06609375 -56.078125 93.546875 C-50.8612241 95.60871461 -45.93489794 95.58761943 -40.3828125 95.5078125 C-39.3630835 95.49766113 -38.34335449 95.48750977 -37.29272461 95.47705078 C-13.57568518 94.99168581 6.5083155 85.88866905 23.2890625 69.36328125 C31.48640253 61.65387812 40.99676065 60.6951288 51.79882812 60.9765625 C53.25919922 61.0262161 54.71948909 61.07831659 56.1796875 61.1328125 C68.95016427 61.92048669 68.95016427 61.92048669 80.4921875 57.1328125 C84.74388126 52.55406537 85.87534722 49.56300638 85.7578125 43.44140625 C85.24241168 38.96196675 83.05180951 36.44370169 79.6796875 33.609375 C73.49827702 29.13239756 66.66823627 26.59216826 59.4921875 24.1328125 C58.63496094 23.83375 57.77773437 23.5346875 56.89453125 23.2265625 C43.6722298 18.92662707 24.74795594 15.44547314 11.6953125 21.81640625 C3.57565527 26.66804541 -1.22913707 31.66790216 -5.5078125 40.1328125 C-6.04148437 41.10927734 -6.04148437 41.10927734 -6.5859375 42.10546875 C-10.30954843 49.53791437 -11.92641228 57.8741286 -13.93945312 65.89208984 C-14.69689131 68.87824433 -15.50354522 71.84989941 -16.3203125 74.8203125 C-16.55363281 75.66980469 -16.78695313 76.51929688 -17.02734375 77.39453125 C-17.18589844 77.96816406 -17.34445312 78.54179688 -17.5078125 79.1328125 C-19.3203125 78.6328125 -19.3203125 78.6328125 -21.5078125 77.1328125 C-25.12498204 69.99435021 -25.64625976 62.17652065 -26.5703125 54.3203125 C-26.74058498 52.92952934 -26.91148781 51.53882322 -27.08300781 50.14819336 C-27.57291767 46.14474691 -28.04235366 42.13917565 -28.5078125 38.1328125 C-28.63075684 37.08706055 -28.75370117 36.04130859 -28.88037109 34.96386719 C-29.18155476 32.37521837 -29.47364794 29.78587937 -29.7578125 27.1953125 C-29.83781494 26.47690186 -29.91781738 25.75849121 -30.00024414 25.01831055 C-31.29483035 12.49697677 -31.29483035 12.49697677 -28.6328125 7.8828125 C-21.3752911 0.33745739 -9.78350054 0.00881737 0 0 Z " fill="#213E6A" transform="translate(1710.5078125,797.8671875)"/>
<path d="M0 0 C1.7777671 -0.00745687 3.55552394 -0.01809415 5.33325195 -0.03204346 C7.85153652 -0.05002274 10.36947579 -0.05407147 12.88781738 -0.05422974 C13.63265381 -0.06136993 14.37749023 -0.06851013 15.14489746 -0.0758667 C21.75259085 -0.0476887 28.13848412 0.91703617 33.80969238 4.55123901 C34.45680176 4.95084839 35.10391113 5.35045776 35.77062988 5.76217651 C37.73193723 7.42882736 38.43033614 8.81703822 39.43469238 11.17623901 C39.96389269 19.27907655 38.79906554 27.36622471 37.89050293 35.41207886 C37.62524841 37.77402678 37.37224587 40.13706433 37.12023926 42.50045776 C34.15093681 69.63832775 34.15093681 69.63832775 29.43469238 77.17623901 C27.24719238 78.05123901 27.24719238 78.05123901 25.43469238 78.17623901 C25.20133179 77.09693115 25.20133179 77.09693115 24.96325684 75.99581909 C19.52816373 47.25413346 19.52816373 47.25413346 2.38781738 24.42233276 C-2.9759635 21.00024056 -9.22114164 18.69413011 -15.56530762 18.17623901 C-16.2601123 18.11307495 -16.95491699 18.04991089 -17.67077637 17.98483276 C-35.00858071 17.15154294 -58.17491182 22.70720243 -71.56530762 34.17623901 C-75.92528777 38.4927368 -75.92528777 38.4927368 -77.61999512 44.12936401 C-77.25086365 48.84782716 -76.65408052 52.3773769 -73.16564941 55.90353394 C-64.26213984 62.98423499 -53.61855856 61.43985298 -42.92980957 60.94332886 C-31.64256149 60.45854913 -22.93026509 61.10329114 -13.77697754 68.65084839 C-12.37973379 70.02285069 -11.09395546 71.50558693 -9.81530762 72.98873901 C3.85903248 87.74378196 24.45183325 94.21897686 44.08703613 95.39498901 C52.98335351 95.61533124 60.84083731 94.40084249 69.43469238 92.17623901 C64.07504467 98.87579865 57.81386291 104.48106766 51.43469238 110.17623901 C50.51816895 110.99608276 49.60164551 111.81592651 48.65734863 112.66061401 C46.58781485 114.5045588 44.51419152 116.34354911 42.43469238 118.17623901 C41.99641113 117.82432495 41.55812988 117.47241089 41.10656738 117.10983276 C20.49237133 101.06260291 -3.08166855 94.9107109 -28.56530762 92.17623901 C-29.28586838 92.09299881 -30.00642914 92.00975861 -30.74882507 91.92399597 C-36.84847954 91.25516519 -42.86589104 91.02889192 -48.99890137 91.00045776 C-50.96701113 90.97726875 -52.93511014 90.95315179 -54.90319824 90.92819214 C-57.95511231 90.89312394 -61.00662475 90.86372224 -64.05871582 90.85031128 C-91.70874017 90.70559338 -91.70874017 90.70559338 -102.15124512 80.64889526 C-108.61901924 73.69209432 -110.17012325 67.02604473 -109.90905762 57.60592651 C-108.04209782 38.97875947 -96.38557534 24.37319687 -82.50280762 12.73873901 C-60.12880704 -4.28957471 -26.71645958 0.10331168 0 0 Z " fill="#203D69" transform="translate(252.5653076171875,794.8237609863281)"/>
<path d="M0 0 C3.91400693 3.04105946 7.58789211 6.31184314 11.21533203 9.68603516 C12.09833984 10.48783203 12.98134766 11.28962891 13.89111328 12.11572266 C35.95864429 33.05070542 47.63510908 62.73405405 48.50292969 92.90991211 C48.86073469 123.81794984 35.37826038 152.71984238 14.21533203 174.68603516 C13.24660156 175.76691406 13.24660156 175.76691406 12.25830078 176.86962891 C2.76529456 187.1485485 -10.20337709 193.93370901 -22.78466797 199.68603516 C-23.63287109 200.08564453 -24.48107422 200.48525391 -25.35498047 200.89697266 C-32.53654649 204.04927721 -40.0908 205.38015702 -47.78466797 206.68603516 C-49.39341797 206.96640625 -49.39341797 206.96640625 -51.03466797 207.25244141 C-82.30287014 210.86782728 -112.09730714 203.50119828 -136.94091797 184.03369141 C-160.81571936 164.32386224 -176.77323358 137.69517988 -180.78466797 106.68603516 C-181.07028652 102.26508267 -181.11883082 97.86530299 -181.09716797 93.43603516 C-181.09225342 92.24526367 -181.08733887 91.05449219 -181.08227539 89.82763672 C-180.96582462 81.07292777 -180.23799406 73.1286553 -177.78466797 64.68603516 C-177.45595703 63.48720703 -177.12724609 62.28837891 -176.78857422 61.05322266 C-172.10047379 45.51273751 -164.18285447 32.05457866 -153.78466797 19.68603516 C-153.07826172 18.81591797 -152.37185547 17.94580078 -151.64404297 17.04931641 C-142.04379885 5.724584 -129.9195671 -2.59859975 -116.78466797 -9.31396484 C-115.72248047 -9.85794922 -114.66029297 -10.40193359 -113.56591797 -10.96240234 C-77.92262069 -27.68080607 -31.82476764 -23.43103959 0 0 Z M-97.78466797 -4.31396484 C-98.74373047 -4.00048096 -98.74373047 -4.00048096 -99.72216797 -3.68066406 C-126.318883 5.26757549 -147.15938144 25.42169771 -159.69750977 50.20043945 C-171.0428502 73.66389657 -172.20137358 102.05185047 -163.88623047 126.60302734 C-158.3543361 141.98674973 -150.04739879 154.89542403 -138.78466797 166.68603516 C-138.00736328 167.50587891 -137.23005859 168.32572266 -136.42919922 169.17041016 C-117.50617005 187.53975345 -92.27376337 195.92483148 -66.34716797 195.81103516 C-65.46996094 195.81490234 -64.59275391 195.81876953 -63.68896484 195.82275391 C-53.83901465 195.80823666 -45.01513979 194.86740685 -35.65966797 191.68603516 C-34.29878052 191.22571899 -34.29878052 191.22571899 -32.91040039 190.75610352 C-5.63927182 181.13367789 14.69393884 161.27518344 27.31933594 135.58105469 C38.40033413 112.14489448 39.08414609 85.1722097 30.75439453 60.76806641 C21.33042501 34.87387874 2.95067941 12.90572578 -22.03466797 0.87353516 C-45.22547693 -9.73078289 -73.47468021 -12.47356722 -97.78466797 -4.31396484 Z " fill="#223F6B" transform="translate(1049.78466796875,1006.31396484375)"/>
<path d="M0 0 C-0.93590504 1.1055189 -1.87379858 2.20935453 -2.8125 3.3125 C-3.33457031 3.92738281 -3.85664062 4.54226563 -4.39453125 5.17578125 C-6 7 -6 7 -7.58154297 8.35766602 C-9.82299632 10.95289092 -9.33150242 13.21442128 -9.21728516 16.51269531 C-8.86467279 20.54911645 -8.09590359 24.43087679 -7.1875 28.375 C-7.02185547 29.16777344 -6.85621094 29.96054688 -6.68554688 30.77734375 C-6.51474609 31.53917969 -6.34394531 32.30101562 -6.16796875 33.0859375 C-5.94016724 34.1076001 -5.94016724 34.1076001 -5.70776367 35.14990234 C-4.83416957 37.43348154 -3.92582488 38.49566496 -2 40 C0.08624625 40.78342293 0.08624625 40.78342293 2.421875 41.203125 C3.28296875 41.3784375 4.1440625 41.55375 5.03125 41.734375 C5.9284375 41.90453125 6.825625 42.0746875 7.75 42.25 C9.07257813 42.5284375 9.07257813 42.5284375 10.421875 42.8125 C15.519409 43.81380132 19.90144084 44.4414445 25 43 C27.68463274 40.99814837 27.68463274 40.99814837 29.875 38.4375 C31.24269713 36.9515782 32.61569034 35.47045768 34 34 C34.33 34 34.66 34 35 34 C35.51427994 42.03711899 31.34541114 49.11573018 26.6875 55.5 C21.25456744 60.55389075 15.27058534 62.21157431 8 63 C6.51268769 62.94547303 5.02614848 62.86577172 3.54125977 62.76489258 C-5.28384918 62.31581973 -11.81452274 62.86608658 -18.68569946 68.80026245 C-22.3062672 72.29062763 -25.69489123 75.95489723 -29.0625 79.6875 C-30.46369566 81.15850381 -31.86928477 82.62533554 -33.27929688 84.08789062 C-39.56281288 90.67424608 -45.56855313 97.47977917 -51.234375 104.60546875 C-51.6627919 105.14249924 -52.0912088 105.67952972 -52.53260803 106.23283386 C-55.5582003 110.14718411 -57.8971548 114.2635412 -60.1875 118.625 C-62.78683697 123.32805999 -64.67511931 126.73935607 -69.8671875 128.58203125 C-75.83188804 129.75093777 -80.8660407 130.02581072 -86.3125 127 C-91.01224017 123.60627282 -94.25328772 119.50097889 -95.4765625 113.765625 C-95.87166646 107.73509088 -93.73236449 103.61319311 -90 99 C-87.68345565 97.09304755 -85.19720915 95.67444608 -82.5625 94.25 C-74.86911583 90.04926903 -68.46763795 84.51229899 -61.94412231 78.72357178 C-60.6370872 77.56481298 -59.32569923 76.41094733 -58.01022339 75.26177979 C-37.14383743 58.83424138 -37.14383743 58.83424138 -26.63989258 36.05981445 C-26.77563983 32.44159332 -27.23047519 28.95203338 -27.83374023 25.38500977 C-28.24905641 19.42726571 -25.2152092 13.30068729 -21.66015625 8.63671875 C-15.48325657 2.54702236 -8.51942143 -0.1607438 0 0 Z " fill="#FCFCFD" transform="translate(1017,1031)"/>
<path d="M0 0 C28.50219047 -0.11667587 57.00434529 -0.20491098 85.50672626 -0.25906086 C98.74016097 -0.28486915 111.9734475 -0.32006996 125.20678711 -0.37719727 C136.73769816 -0.4269517 148.26850193 -0.45927189 159.79951733 -0.47044247 C165.90811417 -0.47697468 172.01640404 -0.49238194 178.12490273 -0.52865028 C183.86963691 -0.56248381 189.61393649 -0.57307849 195.35876083 -0.56553841 C197.47158733 -0.56691862 199.58442775 -0.57692589 201.69716835 -0.59602737 C204.57370309 -0.62076763 207.44857944 -0.61497489 210.32514954 -0.60127258 C211.16852869 -0.61583679 212.01190784 -0.630401 212.88084394 -0.64540654 C215.21065235 -0.61523914 215.21065235 -0.61523914 219 0 C221.0579571 2.4312204 222 3.80337719 222 7 C193.49780953 7.11667587 164.99565471 7.20491098 136.49327374 7.25906086 C123.25983903 7.28486915 110.0265525 7.32006996 96.79321289 7.37719727 C85.26230184 7.4269517 73.73149807 7.45927189 62.20048267 7.47044247 C56.09188583 7.47697468 49.98359596 7.49238194 43.87509727 7.52865028 C38.13036309 7.56248381 32.38606351 7.57307849 26.64123917 7.56553841 C24.52841267 7.56691862 22.41557225 7.57692589 20.30283165 7.59602737 C17.42629691 7.62076763 14.55142056 7.61497489 11.67485046 7.60127258 C10.40978174 7.62311889 10.40978174 7.62311889 9.11915606 7.64540654 C6.78934765 7.61523914 6.78934765 7.61523914 3 7 C0.9420429 4.5687796 0 3.19662281 0 0 Z " fill="#2C4871" transform="translate(1635,1157)"/>
<path d="M0 0 C72.27 0 144.54 0 219 0 C217 6 217 6 216 7 C213.18052855 7.09791283 210.38555375 7.12992699 207.56565857 7.12025452 C206.22292998 7.12153615 206.22292998 7.12153615 204.85307556 7.12284368 C201.82968352 7.12450124 198.80634599 7.11897263 195.78295898 7.11352539 C193.62520346 7.11324355 191.46744785 7.11340119 189.30969238 7.1139679 C183.43183155 7.114256 177.55399094 7.10835719 171.67613482 7.10139394 C165.54085056 7.09516255 159.40556588 7.09455677 153.27027893 7.09336853 C141.64324568 7.09025458 130.01622177 7.08204033 118.38919264 7.07201904 C105.15604883 7.06085988 91.92290457 7.05534795 78.68975723 7.05032361 C51.45983296 7.03985777 24.229917 7.0222571 -3 7 C-2.01 4.69 -1.02 2.38 0 0 Z " fill="#2C4871" transform="translate(110,1157)"/>
<path d="M0 0 C1.27380725 0.00436926 1.27380725 0.00436926 2.57334799 0.00882679 C3.46850038 0.00797237 4.36365277 0.00711794 5.28593099 0.00623763 C8.30932304 0.00458007 11.33266057 0.01010867 14.35604757 0.01555592 C16.51380309 0.01583776 18.67155871 0.01568012 20.82931417 0.01511341 C26.707175 0.01482531 32.58501562 0.02072412 38.46287173 0.02768737 C44.598156 0.03391876 50.73344068 0.03452454 56.86872762 0.03571278 C68.49576088 0.03882673 80.12278479 0.04704097 91.74981391 0.05706227 C104.98295773 0.06822143 118.21610198 0.07373336 131.44924933 0.0787577 C158.6791736 0.08922354 185.90908955 0.10682421 213.13900656 0.12908131 C211.81900656 2.43908131 210.49900656 4.74908131 209.13900656 7.12908131 C136.86900656 7.12908131 64.59900656 7.12908131 -9.86099344 7.12908131 C-6.30465885 0.01641211 -6.30465885 0.01641211 0 0 Z " fill="#1E3C68" transform="translate(138.8609934449196,1118.8709186911583)"/>
<path d="M0 0 C28.50219047 -0.11667587 57.00434529 -0.20491098 85.50672626 -0.25906086 C98.74016097 -0.28486915 111.9734475 -0.32006996 125.20678711 -0.37719727 C136.73769816 -0.4269517 148.26850193 -0.45927189 159.79951733 -0.47044247 C165.90811417 -0.47697468 172.01640404 -0.49238194 178.12490273 -0.52865028 C183.86963691 -0.56248381 189.61393649 -0.57307849 195.35876083 -0.56553841 C197.47158733 -0.56691862 199.58442775 -0.57692589 201.69716835 -0.59602737 C204.57370309 -0.62076763 207.44857944 -0.61497489 210.32514954 -0.60127258 C211.16852869 -0.61583679 212.01190784 -0.630401 212.88084394 -0.64540654 C215.21065235 -0.61523914 215.21065235 -0.61523914 219 0 C221.0579571 2.4312204 222 3.80337719 222 7 C193.49780953 7.11667587 164.99565471 7.20491098 136.49327374 7.25906086 C123.25983903 7.28486915 110.0265525 7.32006996 96.79321289 7.37719727 C85.26230184 7.4269517 73.73149807 7.45927189 62.20048267 7.47044247 C56.09188583 7.47697468 49.98359596 7.49238194 43.87509727 7.52865028 C38.13036309 7.56248381 32.38606351 7.57307849 26.64123917 7.56553841 C24.52841267 7.56691862 22.41557225 7.57692589 20.30283165 7.59602737 C17.42629691 7.62076763 14.55142056 7.61497489 11.67485046 7.60127258 C10.40978174 7.62311889 10.40978174 7.62311889 9.11915606 7.64540654 C6.78934765 7.61523914 6.78934765 7.61523914 3 7 C0.9420429 4.5687796 0 3.19662281 0 0 Z " fill="#1E3C68" transform="translate(1613,1119)"/>
<path d="M0 0 C2.375 0.8125 2.375 0.8125 4.375 2.8125 C4.75 6.25 4.75 6.25 4.375 9.8125 C2.6875 11.8125 2.6875 11.8125 0.375 12.8125 C-2.82438696 12.73446617 -4.15629544 12.24995759 -6.5 10.0625 C-7.625 7.8125 -7.625 7.8125 -7.5625 5.25 C-6.06193754 1.3485376 -4.25939617 -0.30424258 0 0 Z " fill="#2D4972" transform="translate(984.625,1286.1875)"/>
<path d="M0 0 C2.9375 0.8125 2.9375 0.8125 4.9375 2.8125 C5.26765665 5.91597254 5.44281294 7.97031176 3.8125 10.6875 C1.02643958 12.35913625 -0.88238862 12.27626624 -4.0625 11.8125 C-6 10.125 -6 10.125 -7.0625 7.8125 C-6.92427181 4.97882207 -6.38805369 3.32653215 -4.875 0.9375 C-3.0625 -0.1875 -3.0625 -0.1875 0 0 Z " fill="#29456F" transform="translate(941.0625,1136.1875)"/>
<path d="M0 0 C1.93559313 -0.13504138 3.873872 -0.23201129 5.8125 -0.3125 C6.89144531 -0.37050781 7.97039062 -0.42851563 9.08203125 -0.48828125 C12 0 12 0 13.88671875 2.39453125 C15 5 15 5 15 7 C11.27253604 7.34703975 7.71383144 7.53970788 4 7 C0 2.62790698 0 2.62790698 0 0 Z " fill="#304B74" transform="translate(1621,1157)"/>
<path d="M0 0 C1.93559313 -0.13504138 3.873872 -0.23201129 5.8125 -0.3125 C6.89144531 -0.37050781 7.97039062 -0.42851563 9.08203125 -0.48828125 C12 0 12 0 13.88671875 2.39453125 C15 5 15 5 15 7 C11.27253604 7.34703975 7.71383144 7.53970788 4 7 C0 2.62790698 0 2.62790698 0 0 Z " fill="#213F6A" transform="translate(1599,1119)"/>
<path d="M0 0 C3.96 0 7.92 0 12 0 C10 5 10 5 9 7 C5.04 7 1.08 7 -3 7 C-1 2 -1 2 0 0 Z " fill="#213F6A" transform="translate(353,1119)"/>
<path d="M0 0 C3.63 0 7.26 0 11 0 C9 5 9 5 8 7 C4.04 7 0.08 7 -4 7 C-2.68 4.69 -1.36 2.38 0 0 Z " fill="#304C74" transform="translate(346,1157)"/>
<path d="M0 0 C1.65322266 0.01740234 1.65322266 0.01740234 3.33984375 0.03515625 C4.99693359 0.04869141 4.99693359 0.04869141 6.6875 0.0625 C7.54214844 0.07410156 8.39679688 0.08570313 9.27734375 0.09765625 C7.95734375 2.40765625 6.63734375 4.71765625 5.27734375 7.09765625 C1.64734375 7.09765625 -1.98265625 7.09765625 -5.72265625 7.09765625 C-3.49748333 0.12544775 -3.49748333 0.12544775 0 0 Z " fill="#23406B" transform="translate(384.72265625,1118.90234375)"/>
<path d="M0 0 C3.63 0 7.26 0 11 0 C9.125 5.875 9.125 5.875 8 7 C5.98035801 7.07244053 3.95832876 7.08377188 1.9375 7.0625 C0.83277344 7.05347656 -0.27195312 7.04445313 -1.41015625 7.03515625 C-2.69212891 7.01775391 -2.69212891 7.01775391 -4 7 C-2.68 4.69 -1.36 2.38 0 0 Z " fill="#23406B" transform="translate(368,1119)"/>
<path d="M0 0 C1.51400391 0.01740234 1.51400391 0.01740234 3.05859375 0.03515625 C4.07050781 0.04417969 5.08242188 0.05320312 6.125 0.0625 C7.29869141 0.07990234 7.29869141 0.07990234 8.49609375 0.09765625 C6.62109375 5.97265625 6.62109375 5.97265625 5.49609375 7.09765625 C3.64321873 7.16992127 1.78775497 7.18146845 -0.06640625 7.16015625 C-1.07832031 7.15113281 -2.09023438 7.14210938 -3.1328125 7.1328125 C-3.91527344 7.12121094 -4.69773437 7.10960937 -5.50390625 7.09765625 C-3.27951797 0.12790632 -3.27951797 0.12790632 0 0 Z " fill="#2F4B73" transform="translate(362.50390625,1156.90234375)"/>
<path d="M0 0 C3.72746396 -0.34703975 7.28616856 -0.53970788 11 0 C15 4.37209302 15 4.37209302 15 7 C11.04 7 7.08 7 3 7 C2.01 4.69 1.02 2.38 0 0 Z " fill="#223F6A" transform="translate(1585,1119)"/>
<path d="M0 0 C3.63 0 7.26 0 11 0 C12.32 2.31 13.64 4.62 15 7 C13.06440687 7.13504138 11.126128 7.23201129 9.1875 7.3125 C7.56908203 7.39951172 7.56908203 7.39951172 5.91796875 7.48828125 C3 7 3 7 1.11328125 4.60546875 C0 2 0 2 0 0 Z " fill="#213F6A" transform="translate(1571,1119)"/>
<path d="M0 0 C1.51400391 0.01740234 1.51400391 0.01740234 3.05859375 0.03515625 C4.07050781 0.04417969 5.08242188 0.05320312 6.125 0.0625 C7.29869141 0.07990234 7.29869141 0.07990234 8.49609375 0.09765625 C6.62109375 4.84765625 6.62109375 4.84765625 5.49609375 7.09765625 C1.86609375 7.09765625 -1.76390625 7.09765625 -5.50390625 7.09765625 C-3.27951797 0.12790632 -3.27951797 0.12790632 0 0 Z " fill="#314C74" transform="translate(376.50390625,1156.90234375)"/>
<path d="M0 0 C3.63 0 7.26 0 11 0 C9 5 9 5 8 7 C4.37 7 0.74 7 -3 7 C-1 2 -1 2 0 0 Z " fill="#23406B" transform="translate(396,1119)"/>
<path d="M0 0 C3.63 0 7.26 0 11 0 C12.32 2.31 13.64 4.62 15 7 C11.37 7 7.74 7 4 7 C2.02 3.535 2.02 3.535 0 0 Z " fill="#2F4B73" transform="translate(1579,1157)"/>
<path d="M0 0 C3.63 0 7.26 0 11 0 C12.32 2.31 13.64 4.62 15 7 C11.27253604 7.34703975 7.71383144 7.53970788 4 7 C0 2.62790698 0 2.62790698 0 0 Z " fill="#213F6A" transform="translate(1557,1119)"/>
<path d="M0 0 C3.70792809 -0.28328822 7.30204313 -0.45269973 11 0 C13.26297338 2.45694253 14 3.6796254 14 7 C10.61897078 7.29035556 7.37177161 7.4386474 4 7 C1.375 4.625 1.375 4.625 0 2 C0 1.34 0 0.68 0 0 Z " fill="#334E76" transform="translate(1565,1157)"/>
<path d="M0 0 C3.70792809 -0.28328822 7.30204313 -0.45269973 11 0 C13.26297338 2.45694253 14 3.6796254 14 7 C10.29207191 7.28328822 6.69795687 7.45269973 3 7 C0.73702662 4.54305747 0 3.3203746 0 0 Z " fill="#324D75" transform="translate(1551,1157)"/>
<path d="M0 0 C3.3 0 6.6 0 10 0 C8.125 5.875 8.125 5.875 7 7 C5.14712498 7.07226502 3.29166122 7.0838122 1.4375 7.0625 C0.42558594 7.05347656 -0.58632813 7.04445313 -1.62890625 7.03515625 C-2.41136719 7.02355469 -3.19382812 7.01195312 -4 7 C-2.68 4.69 -1.36 2.38 0 0 Z " fill="#304C74" transform="translate(403,1157)"/>
<path d="M0 0 C1.37478516 0.01740234 1.37478516 0.01740234 2.77734375 0.03515625 C3.69644531 0.04417969 4.61554688 0.05320312 5.5625 0.0625 C6.27277344 0.07410156 6.98304688 0.08570313 7.71484375 0.09765625 C5.83984375 4.84765625 5.83984375 4.84765625 4.71484375 7.09765625 C1.08484375 7.09765625 -2.54515625 7.09765625 -6.28515625 7.09765625 C-2.87189473 0.12273054 -2.87189473 0.12273054 0 0 Z " fill="#304C74" transform="translate(391.28515625,1156.90234375)"/>
<path d="M0 0 C3.70792809 -0.28328822 7.30204313 -0.45269973 11 0 C13.26297338 2.45694253 14 3.6796254 14 7 C10.37 7 6.74 7 3 7 C2.01 4.69 1.02 2.38 0 0 Z " fill="#23406B" transform="translate(1543,1119)"/>
<path d="M0 0 C3.63 0 7.26 0 11 0 C11.99 2.31 12.98 4.62 14 7 C10.29207191 7.28328822 6.69795687 7.45269973 3 7 C0.73702662 4.54305747 0 3.3203746 0 0 Z " fill="#23406B" transform="translate(1529,1119)"/>
<path d="M0 0 C3.63 0 7.26 0 11 0 C9.68 2.31 8.36 4.62 7 7 C3.37 7 -0.26 7 -4 7 C-2.68 4.69 -1.36 2.38 0 0 Z " fill="#23406B" transform="translate(425,1119)"/>
<path d="M0 0 C3.3 0 6.6 0 10 0 C8.125 5.875 8.125 5.875 7 7 C5.14712498 7.07226502 3.29166122 7.0838122 1.4375 7.0625 C0.42558594 7.05347656 -0.58632813 7.04445313 -1.62890625 7.03515625 C-2.41136719 7.02355469 -3.19382812 7.01195312 -4 7 C-2.68 4.69 -1.36 2.38 0 0 Z " fill="#23406B" transform="translate(411,1119)"/>
<path d="M0 0 C3.63 0 7.26 0 11 0 C11.99 2.31 12.98 4.62 14 7 C10.7 7 7.4 7 4 7 C2.02 3.535 2.02 3.535 0 0 Z " fill="#314D75" transform="translate(1537,1157)"/>
<path d="M0 0 C3.40031386 -0.35041402 6.61400708 -0.53602709 10 0 C14 4.47619048 14 4.47619048 14 7 C10.59968614 7.35041402 7.38599292 7.53602709 4 7 C0 2.52380952 0 2.52380952 0 0 Z " fill="#23416B" transform="translate(1515,1119)"/>
<path d="M0 0 C1.37478516 0.01740234 1.37478516 0.01740234 2.77734375 0.03515625 C3.69644531 0.04417969 4.61554688 0.05320312 5.5625 0.0625 C6.27277344 0.07410156 6.98304688 0.08570313 7.71484375 0.09765625 C5.83984375 4.84765625 5.83984375 4.84765625 4.71484375 7.09765625 C1.41484375 7.09765625 -1.88515625 7.09765625 -5.28515625 7.09765625 C-3.06170492 0.13084209 -3.06170492 0.13084209 0 0 Z " fill="#24416C" transform="translate(441.28515625,1118.90234375)"/>
<path d="M0 0 C1.37478516 0.01740234 1.37478516 0.01740234 2.77734375 0.03515625 C3.69644531 0.04417969 4.61554688 0.05320312 5.5625 0.0625 C6.27277344 0.07410156 6.98304688 0.08570313 7.71484375 0.09765625 C5.83984375 4.84765625 5.83984375 4.84765625 4.71484375 7.09765625 C1.41484375 7.09765625 -1.88515625 7.09765625 -5.28515625 7.09765625 C-3.06170492 0.13084209 -3.06170492 0.13084209 0 0 Z " fill="#304C74" transform="translate(419.28515625,1156.90234375)"/>
<path d="M0 0 C1.51400391 0.01740234 1.51400391 0.01740234 3.05859375 0.03515625 C4.07050781 0.04417969 5.08242188 0.05320312 6.125 0.0625 C7.29869141 0.07990234 7.29869141 0.07990234 8.49609375 0.09765625 C7.83609375 2.07765625 7.17609375 4.05765625 6.49609375 6.09765625 C2.53609375 6.09765625 -1.42390625 6.09765625 -5.50390625 6.09765625 C-3.11341497 0.12142804 -3.11341497 0.12142804 0 0 Z " fill="#203E69" transform="translate(333.50390625,1157.90234375)"/>
<path d="M0 0 C3.63 0 7.26 0 11 0 C11.99 1.98 12.98 3.96 14 6 C10.04 6 6.08 6 2 6 C1.34 4.02 0.68 2.04 0 0 Z " fill="#22406B" transform="translate(1594,1158)"/>
<path d="M0 0 C3.37887713 -0.28527105 6.63173355 -0.45018698 10 0 C12.18182341 2.43850852 13 3.7321149 13 7 C9.94678976 7.29357791 7.04353857 7.43479122 4 7 C1.4375 4.625 1.4375 4.625 0 2 C0 1.34 0 0.68 0 0 Z " fill="#324D75" transform="translate(1523,1157)"/>
<path d="M0 0 C3.37887713 -0.28527105 6.63173355 -0.45018698 10 0 C12.18182341 2.43850852 13 3.7321149 13 7 C9.62112287 7.28527105 6.36826645 7.45018698 3 7 C0.81817659 4.56149148 0 3.2678851 0 0 Z " fill="#314D75" transform="translate(1509,1157)"/>
<path d="M0 0 C1.23556641 0.01740234 1.23556641 0.01740234 2.49609375 0.03515625 C3.32238281 0.04417969 4.14867187 0.05320312 5 0.0625 C5.63808594 0.07410156 6.27617187 0.08570313 6.93359375 0.09765625 C5.05859375 5.97265625 5.05859375 5.97265625 3.93359375 7.09765625 C2.24750409 7.16971136 0.55858716 7.18151693 -1.12890625 7.16015625 C-2.04800781 7.15113281 -2.96710938 7.14210938 -3.9140625 7.1328125 C-4.62433594 7.12121094 -5.33460938 7.10960937 -6.06640625 7.09765625 C-2.65447443 0.12544775 -2.65447443 0.12544775 0 0 Z " fill="#304C74" transform="translate(448.06640625,1156.90234375)"/>
<path d="M0 0 C3.3 0 6.6 0 10 0 C8.125 4.75 8.125 4.75 7 7 C3.7 7 0.4 7 -3 7 C-2.01 4.69 -1.02 2.38 0 0 Z " fill="#314C75" transform="translate(431,1157)"/>
<path d="M0 0 C3.37887713 -0.28527105 6.63173355 -0.45018698 10 0 C12.18182341 2.43850852 13 3.7321149 13 7 C9.7 7 6.4 7 3 7 C2.01 4.69 1.02 2.38 0 0 Z " fill="#24416C" transform="translate(1501,1119)"/>
<path d="M0 0 C3.37887713 -0.28527105 6.63173355 -0.45018698 10 0 C12.18182341 2.43850852 13 3.7321149 13 7 C9.62112287 7.28527105 6.36826645 7.45018698 3 7 C0.81817659 4.56149148 0 3.2678851 0 0 Z " fill="#24416C" transform="translate(1487,1119)"/>
<path d="M0 0 C3.3 0 6.6 0 10 0 C8.68 2.31 7.36 4.62 6 7 C2.7 7 -0.6 7 -4 7 C-2.68 4.69 -1.36 2.38 0 0 Z " fill="#24416C" transform="translate(468,1119)"/>
<path d="M0 0 C1.23556641 0.01740234 1.23556641 0.01740234 2.49609375 0.03515625 C3.32238281 0.04417969 4.14867187 0.05320312 5 0.0625 C5.63808594 0.07410156 6.27617187 0.08570313 6.93359375 0.09765625 C5.05859375 5.97265625 5.05859375 5.97265625 3.93359375 7.09765625 C2.24750409 7.16971136 0.55858716 7.18151693 -1.12890625 7.16015625 C-2.04800781 7.15113281 -2.96710938 7.14210938 -3.9140625 7.1328125 C-4.62433594 7.12121094 -5.33460938 7.10960937 -6.06640625 7.09765625 C-2.65447443 0.12544775 -2.65447443 0.12544775 0 0 Z " fill="#24416C" transform="translate(456.06640625,1118.90234375)"/>
<path d="M0 0 C3.63 0 7.26 0 11 0 C11.99 1.98 12.98 3.96 14 6 C12.23050905 6.10815225 10.45912513 6.18566083 8.6875 6.25 C7.70136719 6.29640625 6.71523437 6.3428125 5.69921875 6.390625 C3 6 3 6 1.14453125 4.109375 C0 2 0 2 0 0 Z " fill="#203E6A" transform="translate(1608,1158)"/>
<path d="M0 0 C3.37887713 -0.28527105 6.63173355 -0.45018698 10 0 C12.18182341 2.43850852 13 3.7321149 13 7 C10.03 7 7.06 7 4 7 C2.02 3.535 2.02 3.535 0 0 Z " fill="#324D75" transform="translate(1495,1157)"/>
<path d="M0 0 C2.97 0 5.94 0 9 0 C7.125 4.75 7.125 4.75 6 7 C2.7 7 -0.6 7 -4 7 C-2.68 4.69 -1.36 2.38 0 0 Z " fill="#314D75" transform="translate(460,1157)"/>
<path d="M0 0 C3.3 0 6.6 0 10 0 C10.99 2.31 11.98 4.62 13 7 C9.9256579 7.35473178 7.0593239 7.53182739 4 7 C0 2.41463415 0 2.41463415 0 0 Z " fill="#24416C" transform="translate(1473,1119)"/>
<path d="M0 0 C2.97 0 5.94 0 9 0 C7.125 4.75 7.125 4.75 6 7 C2.7 7 -0.6 7 -4 7 C-2.68 4.69 -1.36 2.38 0 0 Z " fill="#24416C" transform="translate(482,1119)"/>
<path d="M0 0 C3.05071175 -0.287803 5.96060262 -0.4472872 9 0 C11.10361696 2.4223468 12 3.78245634 12 7 C6.75789474 7.43684211 6.75789474 7.43684211 4 7 C1.5 4.625 1.5 4.625 0 2 C0 1.34 0 0.68 0 0 Z " fill="#334E76" transform="translate(1481,1157)"/>
<path d="M0 0 C3.05071175 -0.287803 5.96060262 -0.4472872 9 0 C11.10361696 2.4223468 12 3.78245634 12 7 C8.94928825 7.287803 6.03939738 7.4472872 3 7 C0.89638304 4.5776532 0 3.21754366 0 0 Z " fill="#324D75" transform="translate(1467,1157)"/>
<path d="M0 0 C2.97 0 5.94 0 9 0 C7.125 5.875 7.125 5.875 6 7 C4.48071962 7.07179964 2.95832518 7.08392007 1.4375 7.0625 C0.61121094 7.05347656 -0.21507812 7.04445313 -1.06640625 7.03515625 C-1.70449219 7.02355469 -2.34257812 7.01195312 -3 7 C-2.01 4.69 -1.02 2.38 0 0 Z " fill="#314D75" transform="translate(488,1157)"/>
<path d="M0 0 C2.97 0 5.94 0 9 0 C7.125 4.75 7.125 4.75 6 7 C3.03 7 0.06 7 -3 7 C-1.125 2.25 -1.125 2.25 0 0 Z " fill="#324D75" transform="translate(474,1157)"/>
<path d="M0 0 C3.05071175 -0.287803 5.96060262 -0.4472872 9 0 C11.10361696 2.4223468 12 3.78245634 12 7 C9.03 7 6.06 7 3 7 C2.01 4.69 1.02 2.38 0 0 Z " fill="#24416C" transform="translate(1459,1119)"/>
<path d="M0 0 C3.05071175 -0.287803 5.96060262 -0.4472872 9 0 C11.10361696 2.4223468 12 3.78245634 12 7 C8.94928825 7.287803 6.03939738 7.4472872 3 7 C0.89638304 4.5776532 0 3.21754366 0 0 Z " fill="#24416C" transform="translate(1445,1119)"/>
<path d="M0 0 C1.23556641 0.01740234 1.23556641 0.01740234 2.49609375 0.03515625 C3.32238281 0.04417969 4.14867187 0.05320312 5 0.0625 C5.63808594 0.07410156 6.27617188 0.08570313 6.93359375 0.09765625 C5.61359375 2.40765625 4.29359375 4.71765625 2.93359375 7.09765625 C-0.03640625 7.09765625 -3.00640625 7.09765625 -6.06640625 7.09765625 C-2.65447443 0.12544775 -2.65447443 0.12544775 0 0 Z " fill="#24416C" transform="translate(513.06640625,1118.90234375)"/>
<path d="M0 0 C2.97 0 5.94 0 9 0 C7.125 5.875 7.125 5.875 6 7 C4.48071962 7.07179964 2.95832518 7.08392007 1.4375 7.0625 C0.61121094 7.05347656 -0.21507812 7.04445313 -1.06640625 7.03515625 C-1.70449219 7.02355469 -2.34257812 7.01195312 -3 7 C-2.01 4.69 -1.02 2.38 0 0 Z " fill="#24416C" transform="translate(496,1119)"/>
<path d="M0 0 C3.05071175 -0.287803 5.96060262 -0.4472872 9 0 C11.10361696 2.4223468 12 3.78245634 12 7 C9.36 7 6.72 7 4 7 C2.02 3.535 2.02 3.535 0 0 Z " fill="#334E76" transform="translate(1453,1157)"/>
<path d="M0 0 C2.05078125 0.03255208 4.1015625 0.06510417 6.15234375 0.09765625 C4.27734375 4.84765625 4.27734375 4.84765625 3.15234375 7.09765625 C0.18234375 7.09765625 -2.78765625 7.09765625 -5.84765625 7.09765625 C-2.43737734 0.12882544 -2.43737734 0.12882544 0 0 Z " fill="#324D75" transform="translate(504.84765625,1156.90234375)"/>
<path d="M0 0 C3.05071175 -0.287803 5.96060262 -0.4472872 9 0 C11.10361696 2.4223468 12 3.78245634 12 7 C6.7327249 7.52672751 6.7327249 7.52672751 4 7 C0 2.3 0 2.3 0 0 Z " fill="#24426C" transform="translate(1431,1119)"/>
<path d="M0 0 C3.25 -0.375 3.25 -0.375 7 0 C11 4.71794872 11 4.71794872 11 8 C7.75 8.375 7.75 8.375 4 8 C0 3.28205128 0 3.28205128 0 0 Z " fill="#425B80" transform="translate(1383,1157)"/>
<path d="M0 0 C2.64 0 5.28 0 8 0 C6.125 4.75 6.125 4.75 5 7 C2.03 7 -0.94 7 -4 7 C-2.68 4.69 -1.36 2.38 0 0 Z " fill="#23406B" transform="translate(525,1119)"/>
<path d="M0 0 C2.97 0 5.94 0 9 0 C7.68 2.31 6.36 4.62 5 7 C2.36 7 -0.28 7 -3 7 C-1.125 2.25 -1.125 2.25 0 0 Z " fill="#27446E" transform="translate(553,1119)"/>
<path d="M0 0 C5.29284165 -0.34707158 5.29284165 -0.34707158 8 0 C10 1.8125 10 1.8125 11 4 C11 4.99 11 5.98 11 7 C7.75 7.3125 7.75 7.3125 4 7 C1.5625 4.625 1.5625 4.625 0 2 C0 1.34 0 0.68 0 0 Z " fill="#344F77" transform="translate(1439,1157)"/>
<path d="M0 0 C5.33087655 -0.43695709 5.33087655 -0.43695709 8 0 C10.02829372 2.40859879 11 3.83044309 11 7 C5.66912345 7.43695709 5.66912345 7.43695709 3 7 C0.97170628 4.59140121 0 3.16955691 0 0 Z " fill="#334E76" transform="translate(1425,1157)"/>
<path d="M0 0 C2.64 0 5.28 0 8 0 C6.125 5.875 6.125 5.875 5 7 C2.32941149 7.14115161 -0.32432238 7.04247107 -3 7 C-1.125 2.25 -1.125 2.25 0 0 Z " fill="#324D75" transform="translate(531,1157)"/>
<path d="M0 0 C2.64 0 5.28 0 8 0 C6.125 4.75 6.125 4.75 5 7 C2.36 7 -0.28 7 -3 7 C-1.125 2.25 -1.125 2.25 0 0 Z " fill="#324E75" transform="translate(517,1157)"/>
<path d="M0 0 C2.64 0 5.28 0 8 0 C9.32 2.31 10.64 4.62 12 7 C9.03 7 6.06 7 3 7 C2.01 4.69 1.02 2.38 0 0 Z " fill="#25426D" transform="translate(1417,1119)"/>
<path d="M0 0 C5.33087655 -0.43695709 5.33087655 -0.43695709 8 0 C10.02829372 2.40859879 11 3.83044309 11 7 C5.66912345 7.43695709 5.66912345 7.43695709 3 7 C0.97170628 4.59140121 0 3.16955691 0 0 Z " fill="#25426D" transform="translate(1403,1119)"/>
<path d="M0 0 C2.64 0 5.28 0 8 0 C6.125 4.75 6.125 4.75 5 7 C2.36 7 -0.28 7 -3 7 C-1.125 2.25 -1.125 2.25 0 0 Z " fill="#23406B" transform="translate(539,1119)"/>
<path d="M0 0 C2.64 0 5.28 0 8 0 C6.125 4.75 6.125 4.75 5 7 C2.36 7 -0.28 7 -3 7 C-2.01 4.69 -1.02 2.38 0 0 Z " fill="#334E76" transform="translate(545,1157)"/>
<path d="M0 0 C5.33087655 -0.43695709 5.33087655 -0.43695709 8 0 C10.02829372 2.40859879 11 3.83044309 11 7 C7.75 7.375 7.75 7.375 4 7 C0 2.17948718 0 2.17948718 0 0 Z " fill="#25426D" transform="translate(1389,1119)"/>
<path d="M0 0 C1.134375 0.020625 2.26875 0.04125 3.4375 0.0625 C1.5625 4.8125 1.5625 4.8125 0.4375 7.0625 C-2.2025 7.0625 -4.8425 7.0625 -7.5625 7.0625 C-4.14194277 0.07266566 -4.14194277 0.07266566 0 0 Z " fill="#25426D" transform="translate(571.5625,1118.9375)"/>
<path d="M0 0 C5.33087655 -0.43695709 5.33087655 -0.43695709 8 0 C10.02829372 2.40859879 11 3.83044309 11 7 C8.69 7 6.38 7 4 7 C2.02 3.535 2.02 3.535 0 0 Z " fill="#324D75" transform="translate(1411,1157)"/>
<path d="M0 0 C0.33 0.99 0.66 1.98 1 3 C-3.24650877 4.03574473 -7.49765711 5.05099861 -11.75 6.0625 C-13.55984375 6.50432617 -13.55984375 6.50432617 -15.40625 6.95507812 C-17.14648438 7.3659668 -17.14648438 7.3659668 -18.921875 7.78515625 C-19.99018555 8.04176025 -21.05849609 8.29836426 -22.15917969 8.56274414 C-24.88311893 8.9820098 -26.43578339 8.91154114 -29 8 C-25.19243977 6.85720004 -21.38383436 5.71796126 -17.57421875 4.58203125 C-16.27802682 4.19499198 -14.98212614 3.80697591 -13.68652344 3.41796875 C-11.82563669 2.85941775 -9.96361456 2.3046538 -8.1015625 1.75 C-6.42054443 1.24726562 -6.42054443 1.24726562 -4.70556641 0.734375 C-2 0 -2 0 0 0 Z " fill="#5E7493" transform="translate(420,975)"/>
<path d="M0 0 C3.25 -0.375 3.25 -0.375 7 0 C11 4.82051282 11 4.82051282 11 7 C7.75 7.3125 7.75 7.3125 4 7 C1.5625 4.625 1.5625 4.625 0 2 C0 1.34 0 0.68 0 0 Z " fill="#355078" transform="translate(1397,1157)"/>
<path d="M0 0 C2.64 0 5.28 0 8 0 C6.68 2.31 5.36 4.62 4 7 C1.69 7 -0.62 7 -3 7 C-1.125 2.25 -1.125 2.25 0 0 Z " fill="#28456F" transform="translate(596,1119)"/>
<path d="M0 0 C2.31 0 4.62 0 7 0 C5.125 5.875 5.125 5.875 4 7 C1.66702567 7.04092937 -0.66705225 7.04241723 -3 7 C-1.125 2.25 -1.125 2.25 0 0 Z " fill="#334E76" transform="translate(574,1157)"/>
<path d="M0 0 C1.134375 0.020625 2.26875 0.04125 3.4375 0.0625 C1.5625 4.8125 1.5625 4.8125 0.4375 7.0625 C-1.8725 7.0625 -4.1825 7.0625 -6.5625 7.0625 C-4.33277027 0.07601351 -4.33277027 0.07601351 0 0 Z " fill="#334E76" transform="translate(563.5625,1156.9375)"/>
<path d="M0 0 C2.31 0 4.62 0 7 0 C8.32 2.31 9.64 4.62 11 7 C8.36 7 5.72 7 3 7 C2.01 4.69 1.02 2.38 0 0 Z " fill="#26436D" transform="translate(1375,1119)"/>
<path d="M0 0 C2.31 0 4.62 0 7 0 C8.32 2.31 9.64 4.62 11 7 C5.66912345 7.43695709 5.66912345 7.43695709 3 7 C0.97170628 4.59140121 0 3.16955691 0 0 Z " fill="#26436D" transform="translate(1361,1119)"/>
<path d="M0 0 C2.31 0 4.62 0 7 0 C5.125 4.75 5.125 4.75 4 7 C1.69 7 -0.62 7 -3 7 C-1.125 2.25 -1.125 2.25 0 0 Z " fill="#24416C" transform="translate(582,1119)"/>
<path d="M0 0 C2.31 0 4.62 0 7 0 C5.125 4.75 5.125 4.75 4 7 C1.69 7 -0.62 7 -3 7 C-1.125 2.25 -1.125 2.25 0 0 Z " fill="#344F77" transform="translate(588,1157)"/>
<path d="M0 0 C3.3125 -0.3125 3.3125 -0.3125 7 0 C8.95578117 2.39740918 10 3.87586608 10 7 C7.25 7.375 7.25 7.375 4 7 C0 2.05263158 0 2.05263158 0 0 Z " fill="#26436D" transform="translate(1347,1119)"/>
<path d="M0 0 C2.31 0 4.62 0 7 0 C5.125 4.75 5.125 4.75 4 7 C1.69 7 -0.62 7 -3 7 C-1.125 2.25 -1.125 2.25 0 0 Z " fill="#26436D" transform="translate(610,1119)"/>
<path d="M0 0 C3.3125 -0.3125 3.3125 -0.3125 7 0 C8.95578117 2.39740918 10 3.87586608 10 7 C8.02 7 6.04 7 4 7 C2.02 3.535 2.02 3.535 0 0 Z " fill="#334E76" transform="translate(1369,1157)"/>
<path d="M0 0 C2.31 0 4.62 0 7 0 C7.99 2.31 8.98 4.62 10 7 C7.25 7.3125 7.25 7.3125 4 7 C1.625 4.625 1.625 4.625 0 2 C0 1.34 0 0.68 0 0 Z " fill="#385279" transform="translate(1355,1157)"/>
<path d="M0 0 C2.75 -0.375 2.75 -0.375 6 0 C10 4.94736842 10 4.94736842 10 7 C6.6875 7.3125 6.6875 7.3125 3 7 C1.04421883 4.60259082 0 3.12413392 0 0 Z " fill="#365178" transform="translate(1341,1157)"/>
<path d="M0 0 C1.4540625 0.0309375 1.4540625 0.0309375 2.9375 0.0625 C1.0625 5.9375 1.0625 5.9375 -0.0625 7.0625 C-2.06208364 7.10330783 -4.06295254 7.10504356 -6.0625 7.0625 C-3.83347902 0.07823427 -3.83347902 0.07823427 0 0 Z " fill="#344F77" transform="translate(620.0625,1156.9375)"/>
<path d="M0 0 C2.75 -0.375 2.75 -0.375 6 0 C10 4.94736842 10 4.94736842 10 7 C7.69 7 5.38 7 3 7 C2.01 4.69 1.02 2.38 0 0 Z " fill="#27446E" transform="translate(1333,1119)"/>
<path d="M0 0 C1.98 0 3.96 0 6 0 C7.32 2.31 8.64 4.62 10 7 C6.6875 7.3125 6.6875 7.3125 3 7 C1.04421883 4.60259082 0 3.12413392 0 0 Z " fill="#27446E" transform="translate(1319,1119)"/>
<path d="M0 0 C2.31 0 4.62 0 7 0 C5.68 2.31 4.36 4.62 3 7 C1.02 7 -0.96 7 -3 7 C-1.125 2.25 -1.125 2.25 0 0 Z " fill="#27446E" transform="translate(639,1119)"/>
<path d="M0 0 C1.98 0 3.96 0 6 0 C4.125 4.75 4.125 4.75 3 7 C0.69 7 -1.62 7 -4 7 C-2.68 4.69 -1.36 2.38 0 0 Z " fill="#27446E" transform="translate(625,1119)"/>
<path d="M0 0 C2.625 -0.1875 2.625 -0.1875 5 0 C3.25 5.75 3.25 5.75 1 8 C-1.625 8.125 -1.625 8.125 -4 8 C-2.87548273 5.0280615 -1.77706209 2.66559313 0 0 Z " fill="#415A7F" transform="translate(660,1157)"/>
<path d="M0 0 C1.4540625 0.0309375 1.4540625 0.0309375 2.9375 0.0625 C1.0625 4.8125 1.0625 4.8125 -0.0625 7.0625 C-2.0425 7.0625 -4.0225 7.0625 -6.0625 7.0625 C-3.83347902 0.07823427 -3.83347902 0.07823427 0 0 Z " fill="#334E76" transform="translate(606.0625,1156.9375)"/>
<path d="M0 0 C1.98 0 3.96 0 6 0 C4.125 4.75 4.125 4.75 3 7 C1.02 7 -0.96 7 -3 7 C-1.125 2.25 -1.125 2.25 0 0 Z " fill="#355077" transform="translate(631,1157)"/>
<path d="M0 0 C1.98 0 3.96 0 6 0 C7.32 2.31 8.64 4.62 10 7 C7.25 7.375 7.25 7.375 4 7 C0 2.05263158 0 2.05263158 0 0 Z " fill="#27446E" transform="translate(1305,1119)"/>
<path d="M0 0 C2.8125 -0.25 2.8125 -0.25 6 0 C7.875 1.8125 7.875 1.8125 9 4 C9 4.99 9 5.98 9 7 C7.35 7 5.7 7 4 7 C2.02 3.535 2.02 3.535 0 0 Z " fill="#344F77" transform="translate(1327,1157)"/>
<path d="M0 0 C1.98 0 3.96 0 6 0 C4.125 4.75 4.125 4.75 3 7 C1.02 7 -0.96 7 -3 7 C-1.125 2.25 -1.125 2.25 0 0 Z " fill="#25426D" transform="translate(653,1119)"/>
<path d="M0 0 C2.8125 -0.3125 2.8125 -0.3125 6 0 C7.88599343 2.38892501 9 3.91851558 9 7 C6.75 7.3125 6.75 7.3125 4 7 C0 2.89189189 0 2.89189189 0 0 Z " fill="#3A547A" transform="translate(1313,1157)"/>
<path d="M0 0 C1.98 0 3.96 0 6 0 C6.99 2.31 7.98 4.62 9 7 C6.1875 7.3125 6.1875 7.3125 3 7 C1.11400657 4.61107499 0 3.08148442 0 0 Z " fill="#38537A" transform="translate(1299,1157)"/>
<path d="M0 0 C1.65 0 3.3 0 5 0 C3.125 4.75 3.125 4.75 2 7 C0.02 7 -1.96 7 -4 7 C-2.68 4.69 -1.36 2.38 0 0 Z " fill="#355077" transform="translate(646,1157)"/>
<path d="M0 0 C1.98 0 3.96 0 6 0 C6.99 2.31 7.98 4.62 9 7 C7.02 7 5.04 7 3 7 C2.01 4.69 1.02 2.38 0 0 Z " fill="#28456F" transform="translate(1291,1119)"/>
<path d="M0 0 C2.25 -0.375 2.25 -0.375 5 0 C9 5.08108108 9 5.08108108 9 7 C6.1875 7.3125 6.1875 7.3125 3 7 C1.11400657 4.61107499 0 3.08148442 0 0 Z " fill="#28456F" transform="translate(1277,1119)"/>
<path d="M0 0 C1.65 0 3.3 0 5 0 C3.125 5.875 3.125 5.875 2 7 C0.00041636 7.04080783 -2.00045254 7.04254356 -4 7 C-2.68 4.69 -1.36 2.38 0 0 Z " fill="#29456F" transform="translate(682,1119)"/>
<path d="M0 0 C1.65 0 3.3 0 5 0 C3.125 4.75 3.125 4.75 2 7 C0.02 7 -1.96 7 -4 7 C-2.68 4.69 -1.36 2.38 0 0 Z " fill="#28456F" transform="translate(668,1119)"/>
<path d="M0 0 C3.96 0 7.92 0 12 0 C12 0.33 12 0.66 12 1 C8.37 1 4.74 1 1 1 C1.99 2.98 2.98 4.96 4 7 C1.23547967 8.38226016 -1.0461363 8.09525387 -4.125 8.0625 C-5.22070312 8.05347656 -6.31640625 8.04445313 -7.4453125 8.03515625 C-8.70988281 8.01775391 -8.70988281 8.01775391 -10 8 C-10 7.67 -10 7.34 -10 7 C-6.7 6.67 -3.4 6.34 0 6 C-0.33 4.68 -0.66 3.36 -1 2 C-0.67 1.34 -0.34 0.68 0 0 Z " fill="#B1BBCA" transform="translate(1607,1157)"/>
<path d="M0 0 C3.96 0 7.92 0 12 0 C12 0.66 12 1.32 12 2 C12.66 2.33 13.32 2.66 14 3 C13.01 4.485 13.01 4.485 12 6 C15.3 6.33 18.6 6.66 22 7 C22 7.33 22 7.66 22 8 C18.04 8 14.08 8 10 8 C9.67 7.01 9.34 6.02 9 5 C9.66 3.68 10.32 2.36 11 1 C7.37 1 3.74 1 0 1 C0 0.67 0 0.34 0 0 Z " fill="#AFB9C9" transform="translate(331,1157)"/>
<path d="M0 0 C2.25 -0.375 2.25 -0.375 5 0 C9 5.08108108 9 5.08108108 9 7 C7.35 7 5.7 7 4 7 C2.02 3.535 2.02 3.535 0 0 Z " fill="#365178" transform="translate(1285,1157)"/>
<path d="M0 0 C1.2065625 0.0309375 1.2065625 0.0309375 2.4375 0.0625 C0.5625 4.8125 0.5625 4.8125 -0.5625 7.0625 C-2.2125 7.0625 -3.8625 7.0625 -5.5625 7.0625 C-3.33446653 0.08132845 -3.33446653 0.08132845 0 0 Z " fill="#375279" transform="translate(676.5625,1156.9375)"/>
<path d="M0 0 C1.65 0 3.3 0 5 0 C6.32 2.31 7.64 4.62 9 7 C6.75 7.375 6.75 7.375 4 7 C0 1.91891892 0 1.91891892 0 0 Z " fill="#29466F" transform="translate(1263,1119)"/>
<path d="M0 0 C1.2065625 0.0309375 1.2065625 0.0309375 2.4375 0.0625 C0.5625 4.8125 0.5625 4.8125 -0.5625 7.0625 C-2.2125 7.0625 -3.8625 7.0625 -5.5625 7.0625 C-3.33446653 0.08132845 -3.33446653 0.08132845 0 0 Z " fill="#2A4670" transform="translate(698.5625,1118.9375)"/>
<path d="M0 0 C1.32 0 2.64 0 4 0 C2.87548273 2.9719385 1.77706209 5.33440687 0 8 C-1.32 8 -2.64 8 -4 8 C-2.87548273 5.0280615 -1.77706209 2.66559313 0 0 Z " fill="#475F83" transform="translate(717,1157)"/>
<path d="M0 0 C2.3125 -0.3125 2.3125 -0.3125 5 0 C6.81883009 2.3832946 8 3.95818337 8 7 C4.84859577 6.65930765 3.39218439 6.41923159 1.1875 4.0625 C0 2 0 2 0 0 Z " fill="#3C567C" transform="translate(1271,1157)"/>
<path d="M0 0 C2.3125 -0.3125 2.3125 -0.3125 5 0 C6.81883009 2.3832946 8 3.95818337 8 7 C5.6875 7.3125 5.6875 7.3125 3 7 C1.18116991 4.6167054 0 3.04181663 0 0 Z " fill="#3B557B" transform="translate(1257,1157)"/>
<path d="M0 0 C1.65 0 3.3 0 5 0 C3.68 2.31 2.36 4.62 1 7 C-0.65 7 -2.3 7 -4 7 C-2.68 4.69 -1.36 2.38 0 0 Z " fill="#2D4972" transform="translate(725,1119)"/>
<path d="M0 0 C1.32 0 2.64 0 4 0 C2.125 5.875 2.125 5.875 1 7 C-0.66617115 7.04063832 -2.33388095 7.042721 -4 7 C-2.68 4.69 -1.36 2.38 0 0 Z " fill="#375178" transform="translate(703,1157)"/>
<path d="M0 0 C1.65 0 3.3 0 5 0 C3.125 4.75 3.125 4.75 2 7 C0.35 7 -1.3 7 -3 7 C-2.01 4.69 -1.02 2.38 0 0 Z " fill="#385279" transform="translate(688,1157)"/>
<path d="M0 0 C2.3125 -0.3125 2.3125 -0.3125 5 0 C6.81883009 2.3832946 8 3.95818337 8 7 C6.35 7 4.7 7 3 7 C2.01 4.69 1.02 2.38 0 0 Z " fill="#2B4770" transform="translate(1249,1119)"/>
<path d="M0 0 C1.65 0 3.3 0 5 0 C5.99 2.31 6.98 4.62 8 7 C5.6875 7.3125 5.6875 7.3125 3 7 C1.18116991 4.6167054 0 3.04181663 0 0 Z " fill="#2A4770" transform="translate(1235,1119)"/>
<path d="M0 0 C-2 3 -2 3 -4.3828125 3.51171875 C-5.28773438 3.56972656 -6.19265625 3.62773438 -7.125 3.6875 C-8.03507812 3.75324219 -8.94515625 3.81898438 -9.8828125 3.88671875 C-10.93082031 3.94279297 -10.93082031 3.94279297 -12 4 C-12 3.34 -12 2.68 -12 2 C-10.56656 1.46809459 -9.12804633 0.94984742 -7.6875 0.4375 C-6.48673828 0.00244141 -6.48673828 0.00244141 -5.26171875 -0.44140625 C-3 -1 -3 -1 0 0 Z " fill="#3C567C" transform="translate(432,973)"/>
<path d="M0 0 C1.32 0 2.64 0 4 0 C2.125 4.75 2.125 4.75 1 7 C-0.65 7 -2.3 7 -4 7 C-2.68 4.69 -1.36 2.38 0 0 Z " fill="#27446E" transform="translate(711,1119)"/>
<path d="M0 0 C1.65 0 3.3 0 5 0 C5.99 2.31 6.98 4.62 8 7 C5.6875 6.875 5.6875 6.875 3 6 C1.1875 2.9375 1.1875 2.9375 0 0 Z " fill="#3A547A" transform="translate(1243,1157)"/>
<path d="M0 0 C2.3125 0.125 2.3125 0.125 5 1 C6.8125 4.0625 6.8125 4.0625 8 7 C5.6875 6.875 5.6875 6.875 3 6 C1.1875 2.9375 1.1875 2.9375 0 0 Z " fill="#2B4871" transform="translate(1221,1119)"/>
<path d="M0 0 C1.32 0 2.64 0 4 0 C2.125 4.75 2.125 4.75 1 7 C-0.65 7 -2.3 7 -4 7 C-2.68 4.69 -1.36 2.38 0 0 Z " fill="#2C4871" transform="translate(739,1119)"/>
<path d="M0 0 C0.33 0.99 0.66 1.98 1 3 C-2.3 5.64 -5.6 8.28 -9 11 C-9.66 10.67 -10.32 10.34 -11 10 C-9.54474941 8.51780033 -8.085701 7.03932861 -6.625 5.5625 C-5.81289062 4.73878906 -5.00078125 3.91507813 -4.1640625 3.06640625 C-2 1 -2 1 0 0 Z " fill="#4B6386" transform="translate(118,1038)"/>
<path d="M0 0 C2.475 0.495 2.475 0.495 5 1 C5.66 2.98 6.32 4.96 7 7 C4.20171644 6.61402985 3.1794116 6.19863427 1.25 4.0625 C0 2 0 2 0 0 Z " fill="#40597E" transform="translate(1229,1157)"/>
<path d="M0 0 C1.32 0 2.64 0 4 0 C7 4.07142857 7 4.07142857 7 7 C5.68 7 4.36 7 3 7 C0 2.92857143 0 2.92857143 0 0 Z " fill="#3E587E" transform="translate(1215,1157)"/>
<path d="M0 0 C1.32 0 2.64 0 4 0 C3.34 1.98 2.68 3.96 2 6 C0.35 6.33 -1.3 6.66 -3 7 C-2.01 4.69 -1.02 2.38 0 0 Z " fill="#3D577D" transform="translate(745,1157)"/>
<path d="M0 0 C1.32 0 2.64 0 4 0 C7 4.07142857 7 4.07142857 7 7 C5.68 7 4.36 7 3 7 C2.01 4.69 1.02 2.38 0 0 Z " fill="#2E4972" transform="translate(1207,1119)"/>
<path d="M0 0 C1.32 0 2.64 0 4 0 C7 4.07142857 7 4.07142857 7 7 C5.68 7 4.36 7 3 7 C0 2.92857143 0 2.92857143 0 0 Z " fill="#2E4A72" transform="translate(1193,1119)"/>
<path d="M0 0 C0.99 0 1.98 0 3 0 C2.34 1.98 1.68 3.96 1 6 C-0.65 6.33 -2.3 6.66 -4 7 C-1.125 1.125 -1.125 1.125 0 0 Z " fill="#2D4972" transform="translate(768,1119)"/>
<path d="M0 0 C1.09570312 0.00902344 2.19140625 0.01804687 3.3203125 0.02734375 C4.16335938 0.03894531 5.00640625 0.05054688 5.875 0.0625 C5.875 0.3925 5.875 0.7225 5.875 1.0625 C2.245 1.0625 -1.385 1.0625 -5.125 1.0625 C-4.465 2.7125 -3.805 4.3625 -3.125 6.0625 C-4.115 6.0625 -5.105 6.0625 -6.125 6.0625 C-6.785 4.4125 -7.445 2.7625 -8.125 1.0625 C-5.36047967 -0.31976016 -3.0788637 -0.03275387 0 0 Z " fill="#B6C0CE" transform="translate(1599.125,1156.9375)"/>
<path d="M0 0 C1.32 0 2.64 0 4 0 C2.125 4.75 2.125 4.75 1 7 C-0.32 6.67 -1.64 6.34 -3 6 C-2.01 4.02 -1.02 2.04 0 0 Z " fill="#375279" transform="translate(731,1157)"/>
<path d="M0 0 C0.99 0 1.98 0 3 0 C1.125 4.75 1.125 4.75 0 7 C-1.32 6.67 -2.64 6.34 -4 6 C-2.1875 3 -2.1875 3 0 0 Z " fill="#2A4770" transform="translate(754,1119)"/>
<path d="M0 0 C3 1 3 1 4.1875 3.0625 C4.455625 3.701875 4.72375 4.34125 5 5 C2.23547967 6.38226016 -0.0461363 6.09525387 -3.125 6.0625 C-4.22070312 6.05347656 -5.31640625 6.04445313 -6.4453125 6.03515625 C-7.70988281 6.01775391 -7.70988281 6.01775391 -9 6 C-9 5.67 -9 5.34 -9 5 C-5.7 4.67 -2.4 4.34 1 4 C0.67 2.68 0.34 1.36 0 0 Z " fill="#C6CED9" transform="translate(1620,1159)"/>
<path d="M0 0 C1.8125 0.1875 1.8125 0.1875 4 1 C7 5.17857143 7 5.17857143 7 8 C6.01 8 5.02 8 4 8 C0 2.74285714 0 2.74285714 0 0 Z " fill="#50688A" transform="translate(1187,1157)"/>
<path d="M0 0 C0.99 0 1.98 0 3 0 C1.125 4.75 1.125 4.75 0 7 C-1.32 6.67 -2.64 6.34 -4 6 C-2.1875 3 -2.1875 3 0 0 Z " fill="#3C567C" transform="translate(760,1157)"/>
<path d="M0 0 C1.32 0 2.64 0 4 0 C7 4.07142857 7 4.07142857 7 7 C5.1875 6.875 5.1875 6.875 3 6 C1.25 2.9375 1.25 2.9375 0 0 Z " fill="#3D577D" transform="translate(1201,1157)"/>
<path d="M0 0 C0.99 0 1.98 0 3 0 C1.125 4.75 1.125 4.75 0 7 C-1.32 6.67 -2.64 6.34 -4 6 C-2.1875 3 -2.1875 3 0 0 Z " fill="#2F4B73" transform="translate(782,1119)"/>
<path d="M0 0 C1.32 0 2.64 0 4 0 C4.99 2.31 5.98 4.62 7 7 C5.1875 6.875 5.1875 6.875 3 6 C1.25 2.9375 1.25 2.9375 0 0 Z " fill="#304B74" transform="translate(1179,1119)"/>
<path d="M0 0 C1.875 0.125 1.875 0.125 4 1 C5.25 4.0625 5.25 4.0625 6 7 C5.01 7 4.02 7 3 7 C0 2.77777778 0 2.77777778 0 0 Z " fill="#445D81" transform="translate(1173,1157)"/>
<path d="M0 0 C0.99 0 1.98 0 3 0 C2.25 2.9375 2.25 2.9375 1 6 C-1.125 6.875 -1.125 6.875 -3 7 C-1.125 2.25 -1.125 2.25 0 0 Z " fill="#425B80" transform="translate(788,1157)"/>
<path d="M0 0 C0.99 0 1.98 0 3 0 C1.125 4.75 1.125 4.75 0 7 C-0.99 7 -1.98 7 -3 7 C-1.125 2.25 -1.125 2.25 0 0 Z " fill="#3F587E" transform="translate(774,1157)"/>
<path d="M0 0 C0.99 0 1.98 0 3 0 C6 4.22222222 6 4.22222222 6 7 C5.01 7 4.02 7 3 7 C0 2.77777778 0 2.77777778 0 0 Z " fill="#324D75" transform="translate(1151,1119)"/>
<path d="M0 0 C1.875 0.125 1.875 0.125 4 1 C5.25 4.0625 5.25 4.0625 6 7 C5.01 7 4.02 7 3 7 C2.01 4.69 1.02 2.38 0 0 Z " fill="#324D75" transform="translate(1165,1119)"/>
<path d="M0 0 C0.99 0 1.98 0 3 0 C1.125 4.75 1.125 4.75 0 7 C-0.99 7 -1.98 7 -3 7 C-1.125 2.25 -1.125 2.25 0 0 Z " fill="#324D75" transform="translate(796,1119)"/>
<path d="M0 0 C0.66 0 1.32 0 2 0 C1.25 2.9375 1.25 2.9375 0 6 C-2.125 6.875 -2.125 6.875 -4 7 C-1.125 1.125 -1.125 1.125 0 0 Z " fill="#2D4972" transform="translate(811,1119)"/>
<path d="M0 0 C0.99 0 1.98 0 3 0 C1.125 4.75 1.125 4.75 0 7 C-0.99 6.67 -1.98 6.34 -3 6 C-2.01 4.02 -1.02 2.04 0 0 Z " fill="#476084" transform="translate(802,1157)"/>
<path d="M0 0 C0.66 0 1.32 0 2 0 C0.125 4.75 0.125 4.75 -1 7 C-1.99 6.67 -2.98 6.34 -4 6 C-2.7260411 3.96166576 -1.38938077 1.96147874 0 0 Z " fill="#3B557B" transform="translate(825,1119)"/>
<path d="M0 0 C0.99 0 1.98 0 3 0 C6 4.22222222 6 4.22222222 6 7 C3 6 3 6 1.3125 2.9375 C0.879375 1.968125 0.44625 0.99875 0 0 Z " fill="#435C81" transform="translate(1159,1157)"/>
<path d="M0 0 C0.99 0 1.98 0 3 0 C6 4.22222222 6 4.22222222 6 7 C3.00675737 5.9024777 2.15389099 5.32317108 0.75 2.375 C0.5025 1.59125 0.255 0.8075 0 0 Z " fill="#355077" transform="translate(1137,1119)"/>
</svg>
